<?xml version="1.0" encoding="utf-8"?>
<!-- Generator: Adobe Illustrator 16.0.3, SVG Export Plug-In . SVG Version: 6.00 Build 0)  -->
<!DOCTYPE svg PUBLIC "-//W3C//DTD SVG 1.1//EN" "http://www.w3.org/Graphics/SVG/1.1/DTD/svg11.dtd">
<svg version="1.1" id="Warstwa_1" xmlns="http://www.w3.org/2000/svg" xmlns:xlink="http://www.w3.org/1999/xlink" x="0px" y="0px"
	 width="400px" height="400px" viewBox="0 0 400 400" enable-background="new 0 0 400 400" xml:space="preserve">
<path fill="#FFFFFF" d="M187.906,45.15c11.985-11.982,23.968-22.373,19.976-35.953c23.97,23.171,33.959,49.135,4.796,78.3
	L91.228,208.938c-11.982,11.987-23.175,27.164-19.177,40.746c-27.568-26.762-36.753-52.728-5.59-83.088L187.906,45.15z"/>
<path fill="#FFFFFF" d="M310.683,190.696c11.986-11.984,23.973-22.375,19.979-35.955c23.968,23.169,34.355,49.534,4.79,78.298
	L214.004,354.498c-11.988,11.98-23.171,25.564-19.176,39.15c-27.566-26.768-36.754-51.133-5.595-81.498L310.683,190.696z"/>
<path fill="#FFFFFF" d="M165.418,163.664c11.774-3.673,25.489-1.854,34.139,6.795c11.979,11.984,23.169,38.357-6.395,67.113
	l-41.549,41.562c-11.983,11.982-23.171,27.164-19.176,40.742c-27.565-26.767-36.755-52.729-5.593-83.104l41.548-41.541
	C181.422,181.448,178.586,166.324,165.418,163.664"/>
</svg>
