<?xml version="1.0" encoding="utf-8"?>
<!-- Generator: Adobe Illustrator 16.0.3, SVG Export Plug-In . SVG Version: 6.00 Build 0)  -->
<!DOCTYPE svg PUBLIC "-//W3C//DTD SVG 1.1//EN" "http://www.w3.org/Graphics/SVG/1.1/DTD/svg11.dtd">
<svg version="1.1" id="Warstwa_1" xmlns:sketch="http://www.bohemiancoding.com/sketch/ns"
	 xmlns="http://www.w3.org/2000/svg" xmlns:xlink="http://www.w3.org/1999/xlink" x="0px" y="0px" width="30.287px"
	 height="30.287px" viewBox="3.811 3.811 30.287 30.287" enable-background="new 3.811 3.811 30.287 30.287" xml:space="preserve">
<title></title>
<g>
	<path fill="#D4F3D6" d="M19.831,17.702c0-0.493,0.05-0.757,0.81-0.757h1.014v-1.89h-1.623c-1.95,0-2.637,0.917-2.637,2.459v1.135
		h-1.214v1.89h1.214v5.485h2.433v-5.485h1.623l0.216-1.891h-1.839L19.831,17.702z"/>
	<path fill="#D4F3D6" d="M18.924,8.072c-6.885,0-12.467,5.582-12.467,12.467c0,6.886,5.582,12.468,12.467,12.468
		c6.885,0,12.467-5.582,12.467-12.468C31.391,13.654,25.809,8.072,18.924,8.072z M18.924,31.513c-6.06,0-10.971-4.913-10.971-10.973
		c0-6.06,4.912-10.972,10.971-10.972S29.895,14.48,29.895,20.54C29.895,26.6,24.983,31.513,18.924,31.513z"/>
</g>
</svg>
