<?xml version="1.0" encoding="utf-8"?>
<!-- Generator: Adobe Illustrator 16.0.3, SVG Export Plug-In . SVG Version: 6.00 Build 0)  -->
<!DOCTYPE svg PUBLIC "-//W3C//DTD SVG 1.1//EN" "http://www.w3.org/Graphics/SVG/1.1/DTD/svg11.dtd">
<svg version="1.1" id="Warstwa_1" xmlns="http://www.w3.org/2000/svg" xmlns:xlink="http://www.w3.org/1999/xlink" x="0px" y="0px"
	 width="158px" height="70px" viewBox="0 0 158 70" enable-background="new 0 0 158 70" xml:space="preserve">
<path fill="#ACCD6C" d="M27.335,15.916c1.494-1.495,2.989-2.791,2.491-4.485c2.991,2.89,4.236,6.129,0.598,9.766L15.276,36.346
	c-1.494,1.494-2.89,3.389-2.392,5.084c-3.438-3.34-4.583-6.579-0.696-10.366L27.335,15.916z"/>
<path fill="#51AD32" d="M42.649,34.07c1.496-1.496,2.99-2.791,2.492-4.485c2.991,2.89,4.286,6.179,0.598,9.768l-15.148,15.15
	c-1.495,1.495-2.89,3.189-2.392,4.883c-3.439-3.337-4.585-6.377-0.697-10.165L42.649,34.07z"/>
<path fill="#ACCD6C" d="M23.152,30.001c2.213-0.416,4.092,0,5.636,1.545c1.495,1.495,2.89,4.784-0.797,8.372l-5.182,5.184
	c-1.497,1.495-2.891,3.39-2.393,5.083c-3.438-3.338-4.584-6.577-0.697-10.366l5.183-5.183C26.527,32.917,25.96,30.406,23.152,30.001
	"/>
<path fill="#1D1D1B" d="M139.165,29.699c0.516,0,0.85,0.051,1.146,0.103v1.223c-0.361,0.374-0.838,0.721-1.48,0.721
	c-0.695,0-1.185-0.348-1.185-1.018C137.646,29.982,138.252,29.699,139.165,29.699 M139.102,25.876c-1.082,0-1.789,0.412-2.368,1.132
	l0.694,0.644c0.386-0.515,0.837-0.836,1.57-0.836c0.798,0,1.313,0.54,1.313,1.416v0.747c-0.361-0.064-0.709-0.128-1.326-0.128
	c-1.48,0-2.458,0.695-2.458,1.969c0,1.132,0.823,1.865,1.981,1.865c0.9,0,1.455-0.386,1.854-0.785v0.657h1.055v-4.389
	C141.417,26.713,140.452,25.876,139.102,25.876 M131.174,29.184v-6.628h-1.12v10h1.12v-1.944l0.913-0.939l2.252,2.883h1.364
	l-2.831-3.707l2.612-2.844h-1.363L131.174,29.184z M126.127,25.876c-1.273,0-2.135,0.811-2.135,1.93c0,1.03,0.811,1.493,1.968,1.893
	c0.838,0.283,1.262,0.476,1.262,1.094c0,0.63-0.411,0.939-1.119,0.939c-0.669,0-1.159-0.36-1.416-0.952l-0.9,0.501
	c0.438,0.927,1.223,1.402,2.329,1.402c1.21,0,2.214-0.708,2.214-1.968c0-1.107-0.733-1.494-1.867-1.892
	c-0.9-0.322-1.363-0.489-1.363-1.081c0-0.58,0.412-0.927,1.068-0.927c0.565,0,0.951,0.245,1.158,0.772l0.888-0.425
	C127.905,26.301,127.118,25.876,126.127,25.876 M120.864,32.556l2.278-6.551h-1.197l-1.634,4.852l-1.776-4.852h-0.836l-1.777,4.852
	l-1.647-4.852h-1.184l2.266,6.551h1.068l1.686-4.659l1.712,4.659H120.864z M108.935,26.816c1.223,0,2.2,0.965,2.2,2.458
	c0,1.48-0.978,2.458-2.2,2.458c-1.236,0-2.214-0.979-2.214-2.458C106.721,27.781,107.698,26.816,108.935,26.816 M108.935,25.876
	c-1.828,0-3.346,1.352-3.346,3.397c0,2.047,1.518,3.41,3.346,3.41c1.813,0,3.333-1.363,3.333-3.41
	C112.268,27.228,110.748,25.876,108.935,25.876 M100.993,26.816c1.082,0,2.149,0.811,2.149,2.458c0,1.66-1.067,2.458-2.149,2.458
	c-0.926,0-1.441-0.36-1.84-0.875v-3.167C99.552,27.176,100.067,26.816,100.993,26.816 M101.213,25.876
	c-1.107,0-1.674,0.386-2.111,0.875v-0.746h-1.055v9.832h1.118v-3.951c0.412,0.463,1.017,0.797,1.996,0.797
	c1.57,0,3.102-1.08,3.102-3.41C104.263,26.983,102.744,25.876,101.213,25.876 M95.807,26.005h-1.119v6.551h1.119V26.005z
	 M95.241,22.955c-0.399,0-0.733,0.335-0.733,0.734c0,0.412,0.321,0.734,0.733,0.734c0.398,0,0.747-0.322,0.747-0.734
	C95.988,23.29,95.64,22.955,95.241,22.955 M89.346,31.514v-8.585h-1.171v9.627h4.955v-1.042H89.346z M80.673,29.699
	c0.515,0,0.849,0.051,1.146,0.103v1.223c-0.36,0.374-0.837,0.721-1.48,0.721c-0.695,0-1.185-0.348-1.185-1.018
	C79.153,29.982,79.759,29.699,80.673,29.699 M80.607,25.876c-1.081,0-1.788,0.412-2.367,1.132l0.694,0.644
	c0.386-0.515,0.837-0.836,1.57-0.836c0.799,0,1.313,0.54,1.313,1.416v0.747c-0.36-0.064-0.708-0.128-1.326-0.128
	c-1.48,0-2.458,0.695-2.458,1.969c0,1.132,0.823,1.865,1.981,1.865c0.901,0,1.454-0.386,1.854-0.785v0.657h1.055v-4.389
	C82.924,26.713,81.959,25.876,80.607,25.876 M76.194,22.556h-1.12v10h1.12V22.556z M70.634,29.699c0.516,0,0.85,0.051,1.146,0.103
	v1.223c-0.359,0.374-0.837,0.721-1.479,0.721c-0.695,0-1.185-0.348-1.185-1.018C69.115,29.982,69.72,29.699,70.634,29.699
	 M70.569,25.876c-1.081,0-1.789,0.412-2.367,1.132l0.694,0.644c0.385-0.515,0.837-0.836,1.57-0.836c0.799,0,1.313,0.54,1.313,1.416
	v0.747c-0.359-0.064-0.708-0.128-1.325-0.128c-1.48,0-2.459,0.695-2.459,1.969c0,1.132,0.824,1.865,1.982,1.865
	c0.901,0,1.454-0.386,1.854-0.785v0.657h1.055v-4.389C72.886,26.713,71.921,25.876,70.569,25.876 M66.116,32.556v-9.627h-1.157
	v4.106h-5.367v-4.106H58.42v9.627h1.172V28.09h5.367v4.466H66.116z"/>
<path fill="#39A935" d="M145.247,45.124l2.966-3.389h-1.175l-3.572,3.975v-3.975h-0.937v7.702h0.937v-2.409l1.132-1.205l2.812,3.614
	h1.122L145.247,45.124z M141.427,42.57v-0.835h-6.455v0.835h2.76v6.867h0.937V42.57H141.427z M133.887,42.57v-0.835h-6.455v0.835
	h2.758v6.867h0.938V42.57H133.887z M123.138,42.57h1.121c0.917,0,1.587,0.474,1.587,1.452c0,0.968-0.67,1.44-1.587,1.44h-1.121
	V42.57z M122.2,41.735v7.702h0.938v-3.13h1.174c1.462,0,2.481-0.762,2.481-2.285c0-1.524-1.02-2.287-2.481-2.287H122.2z
	 M114.607,43.697c1.223,0,2.2,0.965,2.2,2.458c0,1.479-0.978,2.459-2.2,2.459c-1.235,0-2.214-0.979-2.214-2.459
	C112.394,44.662,113.372,43.697,114.607,43.697 M114.607,42.758c-1.828,0-3.346,1.352-3.346,3.397c0,2.047,1.518,3.41,3.346,3.41
	c1.814,0,3.333-1.363,3.333-3.41C117.94,44.109,116.422,42.758,114.607,42.758 M106.256,46.065v-6.629h-1.121v10.001h1.121v-1.943
	l0.913-0.939l2.252,2.883h1.364l-2.832-3.707l2.613-2.844h-1.364L106.256,46.065z M101.531,42.758c-1.273,0-2.137,0.811-2.137,1.93
	c0,1.03,0.812,1.494,1.97,1.894c0.836,0.282,1.261,0.476,1.261,1.094c0,0.631-0.411,0.939-1.119,0.939
	c-0.668,0-1.158-0.361-1.415-0.954l-0.901,0.503c0.438,0.927,1.222,1.402,2.329,1.402c1.21,0,2.213-0.707,2.213-1.968
	c0-1.107-0.733-1.493-1.865-1.894c-0.9-0.321-1.364-0.488-1.364-1.079c0-0.58,0.412-0.928,1.068-0.928
	c0.566,0,0.952,0.244,1.158,0.772l0.889-0.425C103.308,43.183,102.522,42.758,101.531,42.758 M97.967,42.887h-1.119v6.551h1.119
	V42.887z M97.401,39.837c-0.399,0-0.734,0.334-0.734,0.732c0,0.413,0.321,0.734,0.734,0.734c0.397,0,0.746-0.321,0.746-0.734
	C98.147,40.171,97.799,39.837,97.401,39.837 M92.651,42.758c-1.068,0-1.725,0.502-2.06,0.952v-0.823h-1.08v6.551h1.12v-4.75
	c0.359-0.424,0.888-0.9,1.736-0.9c0.939,0,1.507,0.695,1.507,1.674v3.977h1.105v-4.144C94.98,43.762,94.055,42.758,92.651,42.758
	 M84.749,43.697c1.223,0,2.202,0.965,2.202,2.458c0,1.479-0.979,2.459-2.202,2.459c-1.234,0-2.213-0.979-2.213-2.459
	C82.536,44.662,83.515,43.697,84.749,43.697 M84.749,42.758c-1.827,0-3.346,1.352-3.346,3.397c0,2.047,1.519,3.41,3.346,3.41
	c1.815,0,3.334-1.363,3.334-3.41C88.083,44.109,86.564,42.758,84.749,42.758 M80.876,42.848c-0.991,0-1.621,0.502-1.995,0.953
	v-0.914h-1.119v6.551h1.119v-4.557c0.477-0.501,1.017-0.913,1.918-0.913L80.876,42.848z M71.545,39.437h-1.119v10.001h1.119v-4.75
	c0.36-0.424,0.889-0.9,1.738-0.9c0.939,0,1.506,0.695,1.506,1.674v3.977h1.106v-4.144c0-1.532-0.927-2.536-2.329-2.536
	c-1.043,0-1.661,0.476-2.021,0.914V39.437z M66.732,42.758c-1.802,0-3.282,1.274-3.282,3.397c0,2.124,1.48,3.41,3.282,3.41
	c1.055,0,1.892-0.411,2.497-1.26l-0.798-0.58c-0.361,0.515-0.928,0.889-1.699,0.889c-1.223,0-2.149-0.928-2.149-2.459
	c0-1.545,0.927-2.458,2.149-2.458c0.771,0,1.338,0.386,1.699,0.901l0.798-0.579C68.624,43.156,67.787,42.758,66.732,42.758
	 M60.336,42.758c-1.274,0-2.137,0.811-2.137,1.93c0,1.03,0.811,1.494,1.97,1.894c0.835,0.282,1.261,0.476,1.261,1.094
	c0,0.631-0.412,0.939-1.119,0.939c-0.67,0-1.158-0.361-1.417-0.954l-0.9,0.503c0.438,0.927,1.223,1.402,2.33,1.402
	c1.21,0,2.213-0.707,2.213-1.968c0-1.107-0.733-1.493-1.865-1.894c-0.901-0.321-1.364-0.488-1.364-1.079
	c0-0.58,0.411-0.928,1.067-0.928c0.567,0,0.952,0.244,1.159,0.772l0.888-0.425C62.111,43.183,61.326,42.758,60.336,42.758"/>
</svg>
