<?xml version="1.0" encoding="utf-8"?>
<!-- Generator: Adobe Illustrator 16.0.3, SVG Export Plug-In . SVG Version: 6.00 Build 0)  -->
<!DOCTYPE svg PUBLIC "-//W3C//DTD SVG 1.1//EN" "http://www.w3.org/Graphics/SVG/1.1/DTD/svg11.dtd">
<svg version="1.1" id="Warstwa_1" xmlns="http://www.w3.org/2000/svg" xmlns:xlink="http://www.w3.org/1999/xlink" x="0px" y="0px"
	 width="239.989px" height="60px" viewBox="-59.064 0 239.989 60" enable-background="new -59.064 0 239.989 60"
	 xml:space="preserve">
<path fill="#ACCD6C" d="M36.585,13.674c1.313-1.313,2.625-2.451,2.188-3.939c2.627,2.539,3.721,5.383,0.525,8.577L25.992,31.618
	c-1.312,1.312-2.538,2.977-2.101,4.463c-3.02-2.933-4.025-5.776-0.612-9.104L36.585,13.674z"/>
<path fill="#51AD32" d="M50.036,29.62c1.315-1.314,2.627-2.453,2.19-3.941c2.627,2.541,3.763,5.428,0.524,8.579L39.445,47.566
	c-1.314,1.313-2.539,2.802-2.102,4.288c-3.02-2.933-4.026-5.6-0.612-8.929L50.036,29.62z"/>
<path fill="#ACCD6C" d="M32.91,26.043c1.945-0.366,3.594,0,4.951,1.358c1.313,1.313,2.538,4.201-0.7,7.353l-4.552,4.553
	c-1.314,1.313-2.539,2.978-2.101,4.464c-3.02-2.932-4.026-5.777-0.612-9.104l4.552-4.55C35.875,28.605,35.377,26.4,32.91,26.043"/>
<path fill="#1D1D1B" d="M150.58,24.733c0.53,0,0.872,0.052,1.175,0.105v1.253c-0.369,0.385-0.858,0.742-1.518,0.742
	c-0.715,0-1.214-0.357-1.214-1.045C149.022,25.022,149.641,24.733,150.58,24.733 M150.515,20.81c-1.111,0-1.836,0.422-2.43,1.162
	l0.711,0.661c0.396-0.529,0.859-0.859,1.612-0.859c0.816,0,1.346,0.554,1.346,1.452v0.766c-0.369-0.066-0.726-0.131-1.359-0.131
	c-1.52,0-2.521,0.713-2.521,2.021c0,1.163,0.844,1.915,2.032,1.915c0.924,0,1.493-0.396,1.901-0.804v0.674h1.082v-4.506
	C152.89,21.667,151.902,20.81,150.515,20.81 M142.379,24.203v-6.797h-1.149v10.261h1.149V25.67l0.938-0.963l2.311,2.96h1.399
	l-2.904-3.805l2.68-2.917h-1.399L142.379,24.203z M137.202,20.81c-1.307,0-2.19,0.831-2.19,1.979c0,1.057,0.831,1.532,2.018,1.943
	c0.858,0.289,1.297,0.487,1.297,1.122c0,0.647-0.423,0.964-1.149,0.964c-0.688,0-1.189-0.369-1.453-0.977l-0.925,0.514
	c0.451,0.951,1.256,1.44,2.391,1.44c1.241,0,2.272-0.727,2.272-2.019c0-1.138-0.753-1.533-1.919-1.943
	c-0.922-0.331-1.397-0.501-1.397-1.11c0-0.594,0.423-0.951,1.096-0.951c0.579,0,0.977,0.252,1.188,0.792l0.911-0.436
	C139.028,21.246,138.219,20.81,137.202,20.81 M131.803,27.666l2.337-6.723h-1.228l-1.678,4.978l-1.823-4.978h-0.857l-1.824,4.978
	l-1.691-4.978h-1.212l2.324,6.723h1.095l1.73-4.783l1.758,4.783H131.803z M119.562,21.773c1.255,0,2.256,0.99,2.256,2.522
	c0,1.519-1.003,2.522-2.256,2.522c-1.269,0-2.272-1.005-2.272-2.522C117.29,22.764,118.293,21.773,119.562,21.773 M119.562,20.81
	c-1.876,0-3.435,1.386-3.435,3.486c0,2.1,1.558,3.5,3.435,3.5c1.861,0,3.419-1.4,3.419-3.5
	C122.981,22.196,121.423,20.81,119.562,20.81 M111.413,21.773c1.112,0,2.207,0.833,2.207,2.522c0,1.703-1.095,2.522-2.207,2.522
	c-0.951,0-1.478-0.369-1.887-0.897v-3.249C109.936,22.143,110.461,21.773,111.413,21.773 M111.639,20.81
	c-1.138,0-1.717,0.396-2.166,0.896v-0.764h-1.082v10.091h1.146v-4.056c0.425,0.475,1.046,0.818,2.049,0.818
	c1.609,0,3.184-1.108,3.184-3.5C114.768,21.944,113.209,20.81,111.639,20.81 M106.091,20.943h-1.146v6.723h1.146V20.943z
	 M105.511,17.813c-0.41,0-0.752,0.344-0.752,0.753c0,0.423,0.329,0.754,0.752,0.754c0.408,0,0.767-0.331,0.767-0.754
	C106.278,18.157,105.919,17.813,105.511,17.813 M99.462,26.594v-8.808H98.26v9.879h5.083v-1.071H99.462z M90.563,24.733
	c0.529,0,0.871,0.052,1.177,0.105v1.253c-0.37,0.385-0.859,0.742-1.521,0.742c-0.714,0-1.214-0.357-1.214-1.045
	C89.004,25.022,89.625,24.733,90.563,24.733 M90.495,20.81c-1.107,0-1.832,0.422-2.427,1.162l0.711,0.661
	c0.397-0.529,0.86-0.859,1.613-0.859c0.82,0,1.348,0.554,1.348,1.452v0.766c-0.37-0.066-0.729-0.131-1.361-0.131
	c-1.519,0-2.522,0.713-2.522,2.021c0,1.163,0.845,1.915,2.033,1.915c0.925,0,1.493-0.396,1.903-0.804v0.674h1.08v-4.506
	C92.873,21.667,91.883,20.81,90.495,20.81 M85.966,17.406h-1.15v10.261h1.15V17.406z M80.26,24.733c0.529,0,0.872,0.052,1.175,0.105
	v1.253c-0.37,0.385-0.859,0.742-1.518,0.742c-0.715,0-1.214-0.357-1.214-1.045C78.703,25.022,79.322,24.733,80.26,24.733
	 M80.195,20.81c-1.11,0-1.837,0.422-2.431,1.162l0.713,0.661c0.396-0.529,0.859-0.859,1.611-0.859c0.82,0,1.347,0.554,1.347,1.452
	v0.766c-0.369-0.066-0.729-0.131-1.36-0.131c-1.52,0-2.523,0.713-2.523,2.021c0,1.163,0.846,1.915,2.035,1.915
	c0.925,0,1.493-0.396,1.902-0.804v0.674h1.081v-4.506C82.571,21.667,81.581,20.81,80.195,20.81 M75.625,27.666v-9.879h-1.188v4.211
	h-5.507v-4.211h-1.203v9.879h1.203v-4.585h5.507v4.585H75.625z"/>
<path fill="#39A935" d="M156.821,40.561l3.043-3.476h-1.206l-3.666,4.078v-4.078h-0.963v7.903h0.963v-2.472l1.162-1.237l2.884,3.709
	h1.152L156.821,40.561z M152.899,37.942v-0.857h-6.623v0.857h2.833v7.046h0.96v-7.046H152.899z M145.166,37.942v-0.857h-6.625v0.857
	h2.829v7.046h0.962v-7.046H145.166z M134.134,37.942h1.151c0.941,0,1.628,0.485,1.628,1.489c0,0.992-0.687,1.479-1.628,1.479h-1.151
	V37.942z M133.173,37.085v7.903h0.961v-3.212h1.205c1.5,0,2.546-0.781,2.546-2.345s-1.046-2.347-2.546-2.347H133.173z
	 M125.381,39.099c1.255,0,2.257,0.989,2.257,2.521c0,1.519-1.002,2.524-2.257,2.524c-1.268,0-2.271-1.006-2.271-2.524
	C123.11,40.088,124.114,39.099,125.381,39.099 M125.381,38.134c-1.875,0-3.434,1.388-3.434,3.486c0,2.101,1.557,3.498,3.434,3.498
	c1.862,0,3.42-1.399,3.42-3.498S127.244,38.134,125.381,38.134 M116.815,41.526v-6.801h-1.152v10.263h1.152v-1.995l0.936-0.963
	l2.31,2.958h1.4l-2.906-3.804l2.683-2.919h-1.4L116.815,41.526z M111.965,38.134c-1.306,0-2.192,0.831-2.192,1.978
	c0,1.061,0.832,1.535,2.02,1.945c0.859,0.29,1.295,0.488,1.295,1.123c0,0.646-0.421,0.963-1.149,0.963
	c-0.685,0-1.188-0.372-1.45-0.978l-0.926,0.514c0.449,0.952,1.253,1.439,2.391,1.439c1.241,0,2.27-0.725,2.27-2.018
	c0-1.135-0.752-1.532-1.913-1.942c-0.925-0.33-1.401-0.501-1.401-1.107c0-0.596,0.423-0.952,1.098-0.952
	c0.582,0,0.975,0.251,1.187,0.792l0.914-0.437C113.788,38.57,112.982,38.134,111.965,38.134 M108.308,38.266h-1.148v6.722h1.148
	V38.266z M107.728,35.138c-0.409,0-0.753,0.342-0.753,0.748c0,0.426,0.33,0.756,0.753,0.756c0.407,0,0.766-0.33,0.766-0.756
	C108.494,35.479,108.135,35.138,107.728,35.138 M102.855,38.134c-1.098,0-1.771,0.515-2.112,0.978v-0.846h-1.109v6.722h1.149v-4.876
	c0.368-0.434,0.91-0.923,1.78-0.923c0.965,0,1.546,0.714,1.546,1.72v4.079h1.135v-4.251
	C105.244,39.163,104.293,38.134,102.855,38.134 M94.745,39.099c1.255,0,2.258,0.989,2.258,2.521c0,1.519-1.003,2.524-2.258,2.524
	c-1.265,0-2.271-1.006-2.271-2.524C92.474,40.088,93.48,39.099,94.745,39.099 M94.745,38.134c-1.875,0-3.432,1.388-3.432,3.486
	c0,2.101,1.557,3.498,3.432,3.498c1.865,0,3.422-1.399,3.422-3.498S96.608,38.134,94.745,38.134 M90.771,38.227
	c-1.017,0-1.662,0.515-2.046,0.977v-0.938h-1.15v6.722h1.15v-4.676c0.488-0.515,1.043-0.936,1.968-0.936L90.771,38.227z
	 M81.194,34.726h-1.148v10.263h1.148v-4.875c0.371-0.434,0.913-0.924,1.785-0.924c0.963,0,1.545,0.715,1.545,1.719v4.08h1.136
	v-4.251c0-1.572-0.952-2.603-2.391-2.603c-1.07,0-1.705,0.487-2.076,0.938L81.194,34.726L81.194,34.726z M76.258,38.134
	c-1.85,0-3.369,1.308-3.369,3.486c0,2.182,1.519,3.498,3.369,3.498c1.081,0,1.94-0.421,2.561-1.291L78,43.231
	c-0.37,0.53-0.952,0.913-1.742,0.913c-1.256,0-2.207-0.953-2.207-2.524c0-1.585,0.951-2.521,2.207-2.521
	c0.791,0,1.373,0.396,1.742,0.926l0.819-0.596C78.198,38.542,77.339,38.134,76.258,38.134 M69.693,38.134
	c-1.307,0-2.192,0.831-2.192,1.978c0,1.061,0.833,1.535,2.021,1.945c0.856,0.29,1.293,0.488,1.293,1.123
	c0,0.646-0.423,0.963-1.148,0.963c-0.688,0-1.189-0.372-1.453-0.978l-0.925,0.514c0.45,0.952,1.256,1.439,2.392,1.439
	c1.243,0,2.271-0.725,2.271-2.018c0-1.135-0.752-1.532-1.915-1.942c-0.924-0.33-1.401-0.501-1.401-1.107
	c0-0.596,0.422-0.952,1.098-0.952c0.581,0,0.976,0.251,1.188,0.792l0.912-0.437C71.517,38.57,70.71,38.134,69.693,38.134"/>
<image overflow="visible" width="861" height="861" xlink:href="../ikony/pttk_logo_czb.jpg"  transform="matrix(0.0456 0 0 0.0456 -45.2407 13.5957)">
</image>
<line fill="none" stroke="#D3D3D3" stroke-width="0.5" stroke-miterlimit="10" x1="6.091" y1="11.166" x2="6.091" y2="51.501"/>
</svg>
