<?xml version="1.0" encoding="utf-8"?>
<!-- Generator: Adobe Illustrator 16.0.3, SVG Export Plug-In . SVG Version: 6.00 Build 0)  -->
<!DOCTYPE svg PUBLIC "-//W3C//DTD SVG 1.1//EN" "http://www.w3.org/Graphics/SVG/1.1/DTD/svg11.dtd">
<svg version="1.1" id="Warstwa_1" xmlns="http://www.w3.org/2000/svg" xmlns:xlink="http://www.w3.org/1999/xlink" x="0px" y="0px"
	 width="277.833px" height="60px" viewBox="0 0 277.833 60" enable-background="new 0 0 277.833 60" xml:space="preserve">
<path fill="#78C8EA" d="M35.565,14.938c1.257-1.257,2.514-2.347,2.095-3.772c2.516,2.431,3.563,5.155,0.503,8.214L25.421,32.122
	c-1.256,1.256-2.431,2.851-2.012,4.274c-2.892-2.811-3.855-5.533-0.586-8.72L35.565,14.938z"/>
<path fill="#009DCA" d="M48.446,30.208c1.259-1.259,2.516-2.349,2.097-3.774c2.516,2.433,3.604,5.198,0.502,8.216L38.304,47.395
	c-1.258,1.258-2.431,2.686-2.013,4.106c-2.892-2.808-3.856-5.362-0.586-8.55L48.446,30.208z"/>
<path fill="#78C8EA" d="M32.046,26.783c1.862-0.35,3.442,0,4.741,1.301c1.258,1.258,2.431,4.023-0.67,7.042l-4.359,4.36
	c-1.259,1.258-2.432,2.852-2.012,4.272c-2.892-2.808-3.856-5.53-0.586-8.719l4.359-4.356C34.885,29.237,34.408,27.125,32.046,26.783
	"/>
<path fill="#1D1D1B" d="M150.579,32.561c0.551,0,0.906,0.057,1.221,0.109v1.305c-0.383,0.397-0.895,0.771-1.577,0.771
	c-0.742,0-1.263-0.372-1.263-1.087C148.958,32.861,149.603,32.561,150.579,32.561 M150.51,28.48c-1.155,0-1.91,0.439-2.527,1.208
	l0.741,0.688c0.411-0.55,0.894-0.894,1.675-0.894c0.85,0,1.4,0.576,1.4,1.509v0.798c-0.385-0.068-0.756-0.137-1.416-0.137
	c-1.577,0-2.619,0.742-2.619,2.1c0,1.21,0.879,1.991,2.113,1.991c0.959,0,1.552-0.41,1.977-0.833v0.699h1.124v-4.687
	C152.978,29.372,151.952,28.48,150.51,28.48 M142.051,32.009V24.94h-1.195v10.669h1.195v-2.075l0.974-1.003l2.404,3.078h1.452
	l-3.021-3.955l2.787-3.035h-1.454L142.051,32.009z M136.668,28.48c-1.356,0-2.277,0.864-2.277,2.058
	c0,1.101,0.864,1.594,2.098,2.021c0.893,0.303,1.347,0.508,1.347,1.166c0,0.676-0.439,1.004-1.193,1.004
	c-0.713,0-1.236-0.385-1.51-1.017l-0.964,0.533c0.471,0.991,1.308,1.497,2.487,1.497c1.291,0,2.363-0.754,2.363-2.098
	c0-1.185-0.784-1.595-1.995-2.021c-0.959-0.344-1.454-0.521-1.454-1.154c0-0.619,0.44-0.989,1.139-0.989
	c0.603,0,1.016,0.262,1.235,0.824l0.948-0.455C138.568,28.934,137.726,28.48,136.668,28.48 M131.056,35.609l2.428-6.991h-1.274
	l-1.746,5.177l-1.894-5.177h-0.893l-1.896,5.177l-1.758-5.177h-1.259l2.416,6.991h1.139l1.8-4.976l1.825,4.976H131.056z
	 M118.33,29.482c1.304,0,2.346,1.03,2.346,2.624c0,1.578-1.042,2.623-2.346,2.623c-1.317,0-2.362-1.047-2.362-2.623
	C115.967,30.514,117.012,29.482,118.33,29.482 M118.33,28.48c-1.949,0-3.571,1.441-3.571,3.625c0,2.184,1.62,3.638,3.571,3.638
	c1.935,0,3.556-1.453,3.556-3.638C121.885,29.922,120.264,28.48,118.33,28.48 M109.856,29.482c1.156,0,2.296,0.865,2.296,2.624
	c0,1.771-1.14,2.623-2.296,2.623c-0.986,0-1.536-0.385-1.962-0.935v-3.377C108.322,29.866,108.87,29.482,109.856,29.482
	 M110.092,28.48c-1.183,0-1.784,0.412-2.252,0.932v-0.794h-1.125v10.491h1.192v-4.217c0.442,0.494,1.088,0.851,2.131,0.851
	c1.672,0,3.31-1.149,3.31-3.638C113.345,29.66,111.725,28.48,110.092,28.48 M104.325,28.618h-1.192v6.991h1.192V28.618z
	 M103.722,25.365c-0.426,0-0.783,0.357-0.783,0.783c0,0.439,0.344,0.783,0.783,0.783c0.425,0,0.797-0.344,0.797-0.783
	C104.519,25.723,104.147,25.365,103.722,25.365 M97.432,34.496v-9.158h-1.249v10.271h5.284v-1.113H97.432z M88.179,32.561
	c0.551,0,0.906,0.057,1.225,0.109v1.305c-0.386,0.397-0.895,0.771-1.582,0.771c-0.74,0-1.261-0.372-1.261-1.087
	C86.56,32.861,87.205,32.561,88.179,32.561 M88.109,28.48c-1.152,0-1.904,0.439-2.523,1.208l0.741,0.688
	c0.412-0.55,0.893-0.894,1.675-0.894c0.854,0,1.402,0.576,1.402,1.509v0.798c-0.386-0.068-0.758-0.137-1.415-0.137
	c-1.579,0-2.623,0.742-2.623,2.1c0,1.21,0.879,1.991,2.113,1.991c0.962,0,1.553-0.41,1.979-0.833v0.699h1.122v-4.687
	C90.581,29.372,89.554,28.48,88.109,28.48 M83.402,24.94h-1.195v10.669h1.195V24.94z M77.472,32.561
	c0.549,0,0.907,0.057,1.222,0.109v1.305c-0.384,0.397-0.895,0.771-1.578,0.771c-0.743,0-1.263-0.372-1.263-1.087
	C75.853,32.861,76.497,32.561,77.472,32.561 M77.404,28.48c-1.154,0-1.91,0.439-2.527,1.208l0.742,0.688
	c0.411-0.55,0.893-0.894,1.676-0.894c0.852,0,1.4,0.576,1.4,1.509v0.798c-0.384-0.068-0.757-0.137-1.414-0.137
	c-1.58,0-2.624,0.742-2.624,2.1c0,1.21,0.88,1.991,2.115,1.991c0.962,0,1.553-0.41,1.977-0.833v0.699h1.125v-4.687
	C79.874,29.372,78.845,28.48,77.404,28.48 M72.653,35.609V25.338h-1.235v4.376h-5.725v-4.376h-1.25v10.271h1.25v-4.771h5.725v4.771
	H72.653z"/>
<path fill="#009DCA" d="M253.331,30.896l3.162-3.616h-1.252l-3.814,4.243v-4.243h-0.997V35.5h0.997v-2.568l1.212-1.287l2.997,3.855
	h1.197L253.331,30.896z M249.25,28.172v-0.891h-6.885v0.891h2.944V35.5h0.998v-7.328H249.25z M241.211,28.172v-0.891h-6.887v0.891
	h2.94V35.5h0.998v-7.328H241.211z M229.745,28.172h1.196c0.978,0,1.69,0.505,1.69,1.55c0,1.031-0.713,1.538-1.69,1.538h-1.196
	V28.172z M228.747,27.281V35.5h0.998v-3.34h1.252c1.561,0,2.646-0.813,2.646-2.438c0-1.627-1.088-2.44-2.646-2.44L228.747,27.281
	L228.747,27.281z M220.642,29.375c1.306,0,2.349,1.03,2.349,2.623c0,1.579-1.043,2.626-2.349,2.626
	c-1.315,0-2.358-1.047-2.358-2.626C218.284,30.405,219.327,29.375,220.642,29.375 M220.642,28.371c-1.949,0-3.567,1.444-3.567,3.626
	c0,2.185,1.616,3.638,3.567,3.638c1.938,0,3.558-1.455,3.558-3.638C224.2,29.814,222.581,28.371,220.642,28.371 M211.735,31.9
	v-7.072h-1.195V35.5h1.195v-2.074l0.975-1.002l2.401,3.076h1.458l-3.023-3.956l2.789-3.036h-1.457L211.735,31.9z M206.696,28.371
	c-1.357,0-2.279,0.865-2.279,2.058c0,1.104,0.865,1.596,2.101,2.022c0.896,0.303,1.347,0.51,1.347,1.169
	c0,0.673-0.438,1.001-1.195,1.001c-0.713,0-1.234-0.387-1.506-1.018l-0.965,0.535c0.469,0.988,1.303,1.495,2.485,1.495
	c1.291,0,2.358-0.753,2.358-2.099c0-1.18-0.781-1.594-1.985-2.021c-0.966-0.342-1.459-0.521-1.459-1.151
	c0-0.62,0.44-0.991,1.144-0.991c0.604,0,1.014,0.262,1.231,0.824l0.948-0.454C208.588,28.824,207.75,28.371,206.696,28.371
	 M202.895,28.508H201.7v6.99h1.195V28.508z M202.288,25.256c-0.424,0-0.781,0.355-0.781,0.778c0,0.442,0.345,0.785,0.781,0.785
	c0.424,0,0.799-0.343,0.799-0.785C203.086,25.612,202.711,25.256,202.288,25.256 M197.223,28.371c-1.141,0-1.842,0.536-2.196,1.018
	v-0.88h-1.153v6.99h1.194v-5.07c0.384-0.452,0.947-0.959,1.853-0.959c1.002,0,1.608,0.743,1.608,1.789v4.24h1.177v-4.42
	C199.706,29.442,198.719,28.371,197.223,28.371 M188.792,29.375c1.307,0,2.35,1.03,2.35,2.623c0,1.579-1.043,2.626-2.35,2.626
	c-1.313,0-2.358-1.047-2.358-2.626C186.431,30.405,187.476,29.375,188.792,29.375 M188.792,28.371c-1.949,0-3.566,1.444-3.566,3.626
	c0,2.185,1.617,3.638,3.566,3.638c1.938,0,3.558-1.455,3.558-3.638C192.348,29.814,190.729,28.371,188.792,28.371 M184.661,28.467
	c-1.057,0-1.729,0.537-2.129,1.017v-0.975h-1.191v6.99h1.191v-4.86c0.51-0.537,1.086-0.975,2.047-0.975L184.661,28.467z
	 M174.708,24.829h-1.192V35.5h1.192v-5.07c0.385-0.451,0.949-0.96,1.854-0.96c1.002,0,1.604,0.743,1.604,1.788V35.5h1.181v-4.421
	c0-1.635-0.989-2.707-2.481-2.707c-1.115,0-1.775,0.507-2.16,0.978L174.708,24.829L174.708,24.829z M169.575,28.371
	c-1.922,0-3.504,1.361-3.504,3.626c0,2.269,1.582,3.638,3.504,3.638c1.125,0,2.021-0.438,2.663-1.343l-0.853-0.619
	c-0.383,0.552-0.989,0.95-1.811,0.95c-1.307,0-2.295-0.991-2.295-2.626c0-1.648,0.988-2.623,2.295-2.623
	c0.819,0,1.428,0.413,1.811,0.964l0.853-0.62C171.592,28.796,170.7,28.371,169.575,28.371 M162.75,28.371
	c-1.358,0-2.279,0.865-2.279,2.058c0,1.104,0.867,1.596,2.104,2.023c0.891,0.302,1.346,0.509,1.346,1.168
	c0,0.673-0.44,1.001-1.194,1.001c-0.716,0-1.235-0.387-1.513-1.018l-0.961,0.535c0.469,0.988,1.306,1.495,2.486,1.495
	c1.291,0,2.357-0.753,2.357-2.099c0-1.18-0.78-1.594-1.99-2.021c-0.96-0.342-1.453-0.521-1.453-1.151
	c0-0.62,0.438-0.991,1.141-0.991c0.604,0,1.016,0.262,1.235,0.824l0.946-0.454C164.646,28.824,163.809,28.371,162.75,28.371"/>
</svg>
