<?xml version="1.0" encoding="utf-8"?>
<!-- Generator: Adobe Illustrator 16.0.3, SVG Export Plug-In . SVG Version: 6.00 Build 0)  -->
<!DOCTYPE svg PUBLIC "-//W3C//DTD SVG 1.1//EN" "http://www.w3.org/Graphics/SVG/1.1/DTD/svg11.dtd">
<svg version="1.1" id="Warstwa_1" xmlns="http://www.w3.org/2000/svg" xmlns:xlink="http://www.w3.org/1999/xlink" x="0px" y="0px"
	 width="239.989px" height="60px" viewBox="-59.064 0 239.989 60" enable-background="new -59.064 0 239.989 60"
	 xml:space="preserve">
<path fill="#ACCD6C" d="M36.585,13.674c1.313-1.313,2.625-2.451,2.188-3.939c2.627,2.539,3.721,5.383,0.525,8.577L25.992,31.618
	c-1.312,1.312-2.538,2.977-2.101,4.463c-3.02-2.933-4.025-5.776-0.612-9.104L36.585,13.674z"/>
<path fill="#51AD32" d="M50.036,29.62c1.315-1.314,2.627-2.453,2.19-3.941c2.627,2.541,3.763,5.428,0.524,8.579L39.445,47.566
	c-1.314,1.313-2.539,2.802-2.102,4.288c-3.02-2.933-4.026-5.6-0.612-8.929L50.036,29.62z"/>
<path fill="#ACCD6C" d="M32.91,26.043c1.945-0.366,3.594,0,4.951,1.358c1.313,1.313,2.538,4.201-0.7,7.353l-4.552,4.553
	c-1.314,1.313-2.539,2.978-2.101,4.464c-3.02-2.932-4.026-5.777-0.612-9.104l4.552-4.55C35.875,28.605,35.377,26.4,32.91,26.043"/>
<path fill="#1D1D1B" d="M150.58,24.733c0.53,0,0.872,0.052,1.175,0.105v1.253c-0.369,0.385-0.858,0.742-1.518,0.742
	c-0.715,0-1.214-0.357-1.214-1.045C149.022,25.022,149.641,24.733,150.58,24.733 M150.515,20.81c-1.111,0-1.836,0.422-2.43,1.162
	l0.711,0.661c0.396-0.529,0.859-0.859,1.612-0.859c0.816,0,1.346,0.554,1.346,1.452v0.766c-0.369-0.066-0.726-0.131-1.359-0.131
	c-1.52,0-2.521,0.713-2.521,2.021c0,1.163,0.844,1.915,2.032,1.915c0.924,0,1.493-0.396,1.901-0.804v0.674h1.082v-4.506
	C152.89,21.667,151.902,20.81,150.515,20.81 M142.379,24.203v-6.797h-1.149v10.261h1.149V25.67l0.938-0.963l2.311,2.96h1.399
	l-2.904-3.805l2.68-2.917h-1.399L142.379,24.203z M137.202,20.81c-1.307,0-2.19,0.831-2.19,1.979c0,1.057,0.831,1.532,2.018,1.943
	c0.858,0.289,1.297,0.487,1.297,1.122c0,0.647-0.423,0.964-1.149,0.964c-0.688,0-1.189-0.369-1.453-0.977l-0.925,0.514
	c0.451,0.951,1.256,1.44,2.391,1.44c1.241,0,2.272-0.727,2.272-2.019c0-1.138-0.753-1.533-1.919-1.943
	c-0.922-0.331-1.397-0.501-1.397-1.11c0-0.594,0.423-0.951,1.096-0.951c0.579,0,0.977,0.252,1.188,0.792l0.911-0.436
	C139.028,21.246,138.219,20.81,137.202,20.81 M131.803,27.666l2.337-6.723h-1.228l-1.678,4.978l-1.823-4.978h-0.857l-1.824,4.978
	l-1.691-4.978h-1.212l2.324,6.723h1.095l1.73-4.783l1.758,4.783H131.803z M119.562,21.773c1.255,0,2.256,0.99,2.256,2.522
	c0,1.519-1.003,2.522-2.256,2.522c-1.269,0-2.272-1.005-2.272-2.522C117.29,22.764,118.293,21.773,119.562,21.773 M119.562,20.81
	c-1.876,0-3.435,1.386-3.435,3.486c0,2.1,1.558,3.5,3.435,3.5c1.861,0,3.419-1.4,3.419-3.5
	C122.981,22.196,121.423,20.81,119.562,20.81 M111.413,21.773c1.112,0,2.207,0.833,2.207,2.522c0,1.703-1.095,2.522-2.207,2.522
	c-0.951,0-1.478-0.369-1.887-0.897v-3.249C109.936,22.143,110.461,21.773,111.413,21.773 M111.639,20.81
	c-1.138,0-1.717,0.396-2.166,0.896v-0.764h-1.082v10.091h1.146v-4.056c0.425,0.475,1.046,0.818,2.049,0.818
	c1.609,0,3.184-1.108,3.184-3.5C114.768,21.944,113.209,20.81,111.639,20.81 M106.091,20.943h-1.146v6.723h1.146V20.943z
	 M105.511,17.813c-0.41,0-0.752,0.344-0.752,0.753c0,0.423,0.329,0.754,0.752,0.754c0.408,0,0.767-0.331,0.767-0.754
	C106.278,18.157,105.919,17.813,105.511,17.813 M99.462,26.594v-8.808H98.26v9.879h5.083v-1.071H99.462z M90.563,24.733
	c0.529,0,0.871,0.052,1.177,0.105v1.253c-0.37,0.385-0.859,0.742-1.521,0.742c-0.714,0-1.214-0.357-1.214-1.045
	C89.004,25.022,89.625,24.733,90.563,24.733 M90.495,20.81c-1.107,0-1.832,0.422-2.427,1.162l0.711,0.661
	c0.397-0.529,0.86-0.859,1.613-0.859c0.82,0,1.348,0.554,1.348,1.452v0.766c-0.37-0.066-0.729-0.131-1.361-0.131
	c-1.519,0-2.522,0.713-2.522,2.021c0,1.163,0.845,1.915,2.033,1.915c0.925,0,1.493-0.396,1.903-0.804v0.674h1.08v-4.506
	C92.873,21.667,91.883,20.81,90.495,20.81 M85.966,17.406h-1.15v10.261h1.15V17.406z M80.26,24.733c0.529,0,0.872,0.052,1.175,0.105
	v1.253c-0.37,0.385-0.859,0.742-1.518,0.742c-0.715,0-1.214-0.357-1.214-1.045C78.703,25.022,79.322,24.733,80.26,24.733
	 M80.195,20.81c-1.11,0-1.837,0.422-2.431,1.162l0.713,0.661c0.396-0.529,0.859-0.859,1.611-0.859c0.82,0,1.347,0.554,1.347,1.452
	v0.766c-0.369-0.066-0.729-0.131-1.36-0.131c-1.52,0-2.523,0.713-2.523,2.021c0,1.163,0.846,1.915,2.035,1.915
	c0.925,0,1.493-0.396,1.902-0.804v0.674h1.081v-4.506C82.571,21.667,81.581,20.81,80.195,20.81 M75.625,27.666v-9.879h-1.188v4.211
	h-5.507v-4.211h-1.203v9.879h1.203v-4.585h5.507v4.585H75.625z"/>
<path fill="#39A935" d="M156.821,40.561l3.043-3.476h-1.206l-3.666,4.078v-4.078h-0.963v7.903h0.963v-2.472l1.162-1.237l2.884,3.709
	h1.152L156.821,40.561z M152.899,37.942v-0.857h-6.623v0.857h2.833v7.046h0.96v-7.046H152.899z M145.166,37.942v-0.857h-6.625v0.857
	h2.829v7.046h0.962v-7.046H145.166z M134.134,37.942h1.151c0.941,0,1.628,0.485,1.628,1.489c0,0.992-0.687,1.479-1.628,1.479h-1.151
	V37.942z M133.173,37.085v7.903h0.961v-3.212h1.205c1.5,0,2.546-0.781,2.546-2.345s-1.046-2.347-2.546-2.347H133.173z
	 M125.381,39.099c1.255,0,2.257,0.989,2.257,2.521c0,1.519-1.002,2.524-2.257,2.524c-1.268,0-2.271-1.006-2.271-2.524
	C123.11,40.088,124.114,39.099,125.381,39.099 M125.381,38.134c-1.875,0-3.434,1.388-3.434,3.486c0,2.101,1.557,3.498,3.434,3.498
	c1.862,0,3.42-1.399,3.42-3.498S127.244,38.134,125.381,38.134 M116.815,41.526v-6.801h-1.152v10.263h1.152v-1.995l0.936-0.963
	l2.31,2.958h1.4l-2.906-3.804l2.683-2.919h-1.4L116.815,41.526z M111.965,38.134c-1.306,0-2.192,0.831-2.192,1.978
	c0,1.061,0.832,1.535,2.02,1.945c0.859,0.29,1.295,0.488,1.295,1.123c0,0.646-0.421,0.963-1.149,0.963
	c-0.685,0-1.188-0.372-1.45-0.978l-0.926,0.514c0.449,0.952,1.253,1.439,2.391,1.439c1.241,0,2.27-0.725,2.27-2.018
	c0-1.135-0.752-1.532-1.913-1.942c-0.925-0.33-1.401-0.501-1.401-1.107c0-0.596,0.423-0.952,1.098-0.952
	c0.582,0,0.975,0.251,1.187,0.792l0.914-0.437C113.788,38.57,112.982,38.134,111.965,38.134 M108.308,38.266h-1.148v6.722h1.148
	V38.266z M107.728,35.138c-0.409,0-0.753,0.342-0.753,0.748c0,0.426,0.33,0.756,0.753,0.756c0.407,0,0.766-0.33,0.766-0.756
	C108.494,35.479,108.135,35.138,107.728,35.138 M102.855,38.134c-1.098,0-1.771,0.515-2.112,0.978v-0.846h-1.109v6.722h1.149v-4.876
	c0.368-0.434,0.91-0.923,1.78-0.923c0.965,0,1.546,0.714,1.546,1.72v4.079h1.135v-4.251
	C105.244,39.163,104.293,38.134,102.855,38.134 M94.745,39.099c1.255,0,2.258,0.989,2.258,2.521c0,1.519-1.003,2.524-2.258,2.524
	c-1.265,0-2.271-1.006-2.271-2.524C92.474,40.088,93.48,39.099,94.745,39.099 M94.745,38.134c-1.875,0-3.432,1.388-3.432,3.486
	c0,2.101,1.557,3.498,3.432,3.498c1.865,0,3.422-1.399,3.422-3.498S96.608,38.134,94.745,38.134 M90.771,38.227
	c-1.017,0-1.662,0.515-2.046,0.977v-0.938h-1.15v6.722h1.15v-4.676c0.488-0.515,1.043-0.936,1.968-0.936L90.771,38.227z
	 M81.194,34.726h-1.148v10.263h1.148v-4.875c0.371-0.434,0.913-0.924,1.785-0.924c0.963,0,1.545,0.715,1.545,1.719v4.08h1.136
	v-4.251c0-1.572-0.952-2.603-2.391-2.603c-1.07,0-1.705,0.487-2.076,0.938L81.194,34.726L81.194,34.726z M76.258,38.134
	c-1.85,0-3.369,1.308-3.369,3.486c0,2.182,1.519,3.498,3.369,3.498c1.081,0,1.94-0.421,2.561-1.291L78,43.231
	c-0.37,0.53-0.952,0.913-1.742,0.913c-1.256,0-2.207-0.953-2.207-2.524c0-1.585,0.951-2.521,2.207-2.521
	c0.791,0,1.373,0.396,1.742,0.926l0.819-0.596C78.198,38.542,77.339,38.134,76.258,38.134 M69.693,38.134
	c-1.307,0-2.192,0.831-2.192,1.978c0,1.061,0.833,1.535,2.021,1.945c0.856,0.29,1.293,0.488,1.293,1.123
	c0,0.646-0.423,0.963-1.148,0.963c-0.688,0-1.189-0.372-1.453-0.978l-0.925,0.514c0.45,0.952,1.256,1.439,2.392,1.439
	c1.243,0,2.271-0.725,2.271-2.018c0-1.135-0.752-1.532-1.915-1.942c-0.924-0.33-1.401-0.501-1.401-1.107
	c0-0.596,0.422-0.952,1.098-0.952c0.581,0,0.976,0.251,1.188,0.792l0.912-0.437C71.517,38.57,70.71,38.134,69.693,38.134"/>
<g>
	<g>
		<path fill-rule="evenodd" clip-rule="evenodd" fill="#FDFEFD" d="M-44.268,31.661c0-6.17,0-12.342-0.004-18.514
			c0-0.163,0.036-0.2,0.199-0.199c12.329,0.004,24.658,0.004,36.988,0c0.163,0,0.199,0.036,0.199,0.199
			c-0.004,12.344-0.004,24.686,0,37.029c0,0.163-0.037,0.2-0.199,0.2c-12.329-0.005-24.659-0.005-36.988,0
			c-0.163,0-0.2-0.037-0.199-0.2C-44.268,44.005-44.268,37.833-44.268,31.661z M-31.724,39.087
			c-0.018,0.046-0.033,0.095-0.055,0.139c-0.802,1.641-1.511,3.326-2.378,4.936c-0.095-0.001-0.157-0.069-0.225-0.119
			c-0.816-0.588-1.576-1.24-2.262-1.978c-1.416-1.523-2.467-3.266-3.161-5.226c-0.379-1.069-0.643-2.166-0.773-3.293
			c-0.022-0.196-0.16-0.121-0.26-0.134c-0.111-0.015-0.136,0.046-0.12,0.146c0.064,0.39,0.115,0.783,0.191,1.171
			c0.166,0.852,0.406,1.683,0.72,2.49c0.044,0.115,0.068,0.192-0.081,0.252c-0.617,0.245-1.232,0.496-1.843,0.756
			c-0.134,0.057-0.178,0.014-0.218-0.103c-0.128-0.375-0.272-0.745-0.393-1.122c-0.354-1.107-0.593-2.24-0.694-3.399
			c-0.012-0.144-0.067-0.207-0.218-0.195c-0.151,0.012-0.305,0.012-0.456,0.001c-0.157-0.012-0.203,0.045-0.181,0.198
			c0.091,0.643,0.167,1.287,0.305,1.922c0.277,1.278,0.671,2.518,1.198,3.718c0.333,0.758,0.722,1.483,1.148,2.188
			c0.354,0.586,0.759,1.14,1.179,1.684c0.432,0.559,0.916,1.069,1.386,1.591c0.353,0.39,0.76,0.731,1.16,1.075
			c0.542,0.467,1.109,0.904,1.697,1.313c0.742,0.516,1.527,0.957,2.334,1.357c0.976,0.484,1.99,0.885,3.042,1.166
			c1.076,0.288,2.166,0.523,3.282,0.606c0.092,0.008,0.152,0,0.148-0.119c-0.007-0.202-0.005-0.405-0.001-0.607
			c0.002-0.097-0.043-0.116-0.129-0.127c-0.443-0.053-0.887-0.099-1.327-0.175c-1.167-0.201-2.302-0.519-3.404-0.954
			c-0.111-0.044-0.135-0.087-0.085-0.203c0.249-0.584,0.498-1.17,0.727-1.763c0.077-0.198,0.155-0.219,0.347-0.146
			c1.198,0.45,2.429,0.774,3.707,0.896c0.063,0.006,0.182,0.078,0.161-0.075c-0.014-0.098,0.094-0.247-0.129-0.274
			c-0.649-0.081-1.296-0.187-1.933-0.343c-1.599-0.391-3.094-1.022-4.482-1.907c-0.083-0.053-0.203-0.081-0.216-0.212
			c1.226-1.322,2.451-2.646,3.681-3.966c0.195-0.21,0.369-0.442,0.602-0.615c0.08,0.078,0.205,0.107,0.231,0.244
			c0.023,0.117,0.128,0.152,0.232,0.159c0.115,0.008,0.24,0.027,0.345-0.007c0.259-0.086,0.428,0.041,0.595,0.202
			c0.188,0.181,0.402,0.298,0.671,0.313c0.232,0.014,0.316,0.11,0.264,0.337c-0.046,0.198,0.023,0.324,0.173,0.422
			c0.243,0.159,0.376,0.393,0.474,0.655c0.035,0.094,0.064,0.189,0.158,0.251c0.146,0.098,0.252,0.231,0.344,0.384
			c0.135,0.227,0.658,0.198,0.77-0.037c0.082-0.174,0.191-0.323,0.338-0.444c0.157-0.13,0.39-0.088,0.495,0.082
			c0.1,0.161,0.228,0.354,0.393,0.382c0.26,0.044,0.275,0.175,0.26,0.372c-0.007,0.101-0.001,0.202-0.001,0.304
			c0.001,0.224,0.048,0.268,0.27,0.231c0.176-0.029,0.347-0.101,0.53-0.019c0.076,0.033,0.15-0.016,0.177-0.088
			c0.146-0.396,0.495-0.538,0.848-0.64c0.324-0.093,0.665-0.139,0.969,0.104c0.196,0.156,0.477,0.145,0.682-0.007
			c0.122-0.091,0.246-0.184,0.4-0.207c0.476-0.072,0.95-0.178,1.435-0.117c0.302,0.038,0.633,0.098,0.808,0.361
			c0.235,0.353,0.582,0.474,0.941,0.605c0.192,0.07,0.396,0.114,0.585,0.224c-0.028,0.032-0.044,0.058-0.066,0.074
			c-0.205,0.147-0.407,0.3-0.617,0.44c-1.662,1.12-3.477,1.866-5.442,2.255c-0.424,0.083-0.851,0.149-1.279,0.2
			c-0.19,0.022-0.143,0.132-0.151,0.239c-0.01,0.141,0.08,0.126,0.17,0.116c0.172-0.018,0.345-0.026,0.516-0.054
			c1.105-0.178,2.187-0.452,3.23-0.86c0.162-0.063,0.227-0.026,0.288,0.128c0.224,0.563,0.46,1.122,0.69,1.684
			c0.109,0.265,0.108,0.267-0.155,0.368c-1.481,0.568-3.011,0.933-4.591,1.079c-0.112,0.01-0.152,0.043-0.148,0.154
			c0.006,0.181,0.01,0.362-0.001,0.542c-0.009,0.146,0.052,0.169,0.179,0.154c0.989-0.108,1.966-0.283,2.93-0.536
			c0.865-0.227,1.705-0.516,2.53-0.863c0.844-0.356,1.647-0.78,2.43-1.251c0.531-0.318,1.021-0.691,1.525-1.047
			c0.557-0.394,1.063-0.846,1.556-1.307c0.56-0.523,1.07-1.102,1.566-1.689c0.733-0.868,1.366-1.808,1.917-2.796
			c0.374-0.669,0.696-1.367,0.986-2.081c0.663-1.631,1.061-3.322,1.26-5.065c0.016-0.137-0.03-0.185-0.163-0.179
			c-0.159,0.007-0.319,0.013-0.477-0.002c-0.159-0.015-0.205,0.066-0.213,0.199c-0.025,0.447-0.101,0.888-0.18,1.326
			c-0.196,1.096-0.504,2.16-0.909,3.196c-0.037,0.096-0.064,0.164-0.198,0.107c-0.624-0.268-1.251-0.526-1.88-0.783
			c-0.1-0.04-0.113-0.088-0.077-0.18c0.464-1.172,0.754-2.388,0.918-3.635c0.011-0.085,0.086-0.215-0.094-0.227
			c-0.134-0.009-0.261-0.018-0.278,0.178c-0.055,0.647-0.188,1.281-0.352,1.908c-0.735,2.821-2.142,5.25-4.264,7.258
			c-0.085,0.08-0.163,0.174-0.29,0.216c0-0.227,0.001-0.437-0.001-0.646c-0.001-0.078,0.001-0.156-0.043-0.23
			c-0.153-0.257-0.117-0.515,0.023-0.762c0.164-0.289,0.341-0.57,0.511-0.856c0.427-0.722,0.888-1.421,1.419-2.072
			c0.161-0.199,0.362-0.294,0.601-0.267c0.244,0.027,0.299-0.099,0.309-0.293c0.03-0.614,0.057-1.228,0.039-1.843
			c0.376-0.002,0.752-0.004,1.128-0.005c0.285-0.001,0.303-0.023,0.263-0.313c-0.103-0.737-0.263-1.46-0.555-2.147
			c-0.259-0.611-0.596-1.171-1.124-1.592c-0.084-0.068-0.088-0.125-0.051-0.221c0.563-1.446,1.122-2.892,1.682-4.339
			c0.085-0.221,0.079-0.232-0.151-0.234c-0.622-0.002-1.244-0.004-1.866-0.006c0.006-0.115,0.002-0.232,0.021-0.345
			c0.036-0.228-0.111-0.406-0.147-0.604c-0.052-0.287-0.122-0.551-0.257-0.811c-0.332-0.64-0.565-1.32-0.79-2.004
			c-0.089-0.272-0.103-0.559-0.158-0.832c-0.056-0.277-0.1-0.57-0.148-0.857c-0.041-0.238-0.192-0.363-0.393-0.448
			c-0.252-0.106-0.49-0.22-0.683-0.431c-0.265-0.289-0.71-0.322-0.937-0.046c-0.042,0.051-0.104,0.042-0.158,0.061
			c-0.287,0.1-0.585,0.058-0.879,0.065c-0.003-0.084,0.052-0.148,0.084-0.218c0.246-0.535,0.494-1.068,0.742-1.602
			c0.05,0.027,0.104,0.049,0.15,0.082c1.108,0.782,2.099,1.69,2.963,2.739c1.029,1.249,1.83,2.627,2.41,4.136
			c0.449,1.167,0.762,2.37,0.9,3.614c0.021,0.186,0.124,0.193,0.267,0.189c0.179-0.007,0.124-0.134,0.112-0.219
			c-0.169-1.231-0.449-2.436-0.907-3.594c-0.053-0.134-0.025-0.188,0.106-0.24c0.616-0.249,1.229-0.504,1.839-0.766
			c0.117-0.05,0.15-0.006,0.186,0.087c0.303,0.787,0.556,1.589,0.744,2.412c0.16,0.702,0.296,1.409,0.35,2.127
			c0.011,0.144,0.07,0.205,0.219,0.192c0.144-0.012,0.29-0.014,0.433,0c0.18,0.018,0.23-0.049,0.198-0.221
			c-0.035-0.191-0.053-0.385-0.077-0.579c-0.126-0.993-0.32-1.973-0.618-2.928c-0.433-1.392-1.018-2.718-1.759-3.976
			c-0.567-0.963-1.216-1.868-1.948-2.708c-0.631-0.725-1.315-1.399-2.049-2.028c-0.698-0.597-1.429-1.142-2.206-1.627
			c-1.335-0.834-2.75-1.49-4.253-1.97c-1.257-0.401-2.542-0.638-3.846-0.801c-0.091-0.012-0.126,0.012-0.121,0.115
			c0.011,0.195,0.008,0.391,0,0.586c-0.004,0.114,0.027,0.164,0.15,0.178c0.378,0.044,0.756,0.1,1.133,0.155
			c1.238,0.183,2.431,0.532,3.596,0.981c0.097,0.038,0.117,0.072,0.076,0.17c-0.266,0.632-0.527,1.266-0.786,1.901
			c-0.042,0.104-0.094,0.12-0.196,0.078c-0.535-0.219-1.086-0.386-1.643-0.539c-0.681-0.187-1.374-0.315-2.073-0.405
			c-0.08-0.01-0.241-0.109-0.258,0.11c-0.015,0.192,0.042,0.262,0.246,0.274c0.33,0.021,0.658,0.074,0.983,0.135
			c1.723,0.327,3.35,0.917,4.865,1.804c0.226,0.132,0.471,0.243,0.646,0.451c-0.015,0.024-0.026,0.052-0.045,0.073
			c-0.558,0.604-1.117,1.208-1.673,1.813c-0.042,0.045-0.088,0.072-0.147,0.08c-0.086-0.006-0.171-0.017-0.257-0.019
			c-0.759-0.014-1.519,0.032-2.278-0.032c-0.755-0.063-1.511-0.124-2.266-0.186c-0.191-0.016-0.361,0.043-0.487,0.178
			c-0.181,0.194-0.411,0.312-0.625,0.455c-0.117,0.078-0.248,0.063-0.378,0.063c-0.078,0-0.128-0.033-0.137-0.108
			c-0.01-0.08,0.063-0.088,0.116-0.103c0.125-0.034,0.252-0.06,0.377-0.093c0.185-0.048,0.346-0.139,0.467-0.289
			c0.042-0.052,0.057-0.127,0.009-0.18c-0.028-0.031-0.075-0.003-0.104,0.038c-0.163,0.228-0.407,0.294-0.666,0.349
			c-0.405,0.086-0.807,0.019-1.208-0.01c-0.295-0.021-0.567-0.123-0.695-0.434c-0.127-0.306-0.259-0.61-0.383-0.917
			c-0.024-0.06-0.093-0.137-0.009-0.194c0.083-0.057,0.178-0.021,0.235,0.047c0.13,0.156,0.308,0.261,0.427,0.429
			c0.058,0.081,0.121,0.176,0.239,0.193c0.049-0.133,0.017-0.23-0.08-0.319c-0.153-0.143-0.29-0.304-0.449-0.439
			c-0.255-0.219-0.533-0.372-0.896-0.362c-0.647,0.017-1.289-0.016-1.919,0.216c-0.43,0.158-0.885,0.248-1.262,0.526
			c-0.159,0.118-0.328,0.213-0.52,0.251c-0.464,0.094-0.805,0.351-1.085,0.728c-0.257,0.346-0.594,0.584-1.055,0.596
			c-0.142,0.003-0.29,0.031-0.423,0.079c-0.414,0.149-0.846,0.233-1.269,0.35c-0.635,0.175-1.25,0.389-1.816,0.733
			c-0.115,0.07-0.227,0.155-0.368,0.172c-0.042-0.097,0.042-0.145,0.085-0.204c0.752-1.024,1.635-1.924,2.621-2.723
			c1.045-0.847,2.193-1.525,3.428-2.052c1.071-0.456,2.18-0.79,3.331-0.977c0.306-0.05,0.609-0.113,0.919-0.128
			c0.189-0.009,0.157-0.139,0.165-0.262c0.01-0.165-0.103-0.128-0.187-0.119c-0.25,0.03-0.5,0.063-0.748,0.106
			c-1.032,0.177-2.038,0.455-3.015,0.831c-0.116,0.044-0.184,0.028-0.234-0.097c-0.25-0.615-0.506-1.228-0.762-1.841
			c-0.042-0.1-0.047-0.154,0.08-0.203c0.923-0.357,1.867-0.644,2.836-0.843c0.585-0.12,1.173-0.228,1.771-0.268
			c0.196-0.013,0.296-0.081,0.263-0.303c-0.023-0.163-0.021-0.335,0.004-0.498c0.02-0.128-0.048-0.113-0.115-0.103
			c-0.642,0.097-1.287,0.17-1.925,0.298c-1.441,0.29-2.83,0.741-4.157,1.366c-1.193,0.562-2.319,1.234-3.37,2.041
			c-0.963,0.739-1.85,1.551-2.661,2.453c-0.532,0.592-1.021,1.212-1.479,1.864c-0.555,0.791-1.03,1.623-1.453,2.489
			c-0.557,1.142-0.981,2.329-1.282,3.564c-0.207,0.851-0.332,1.713-0.446,2.579c-0.016,0.119,0.004,0.194,0.154,0.184
			c0.166-0.011,0.333-0.012,0.499,0.002c0.149,0.012,0.195-0.063,0.201-0.188c0.016-0.353,0.079-0.7,0.136-1.048
			c0.197-1.198,0.522-2.361,0.957-3.494c0.045-0.118,0.096-0.127,0.206-0.081c0.605,0.255,1.213,0.506,1.822,0.751
			c0.137,0.055,0.171,0.112,0.114,0.258c-0.456,1.173-0.757,2.387-0.909,3.636c-0.01,0.08-0.036,0.177,0.095,0.16
			c0.098-0.013,0.254,0.081,0.275-0.109c0.056-0.508,0.15-1.01,0.261-1.509c0.439-1.983,1.235-3.808,2.415-5.464
			c0.027-0.038,0.036-0.103,0.108-0.071c-0.009,0.076-0.108,0.214,0.098,0.143c0.112-0.039,0.115,0.029,0.119,0.111
			c0.01,0.224,0.006,0.447-0.038,0.668c-0.018,0.089-0.018,0.21-0.104,0.238c-0.07,0.022-0.112-0.095-0.17-0.146
			c-0.027-0.023-0.047-0.055-0.071-0.082c-0.085-0.101-0.202-0.075-0.302-0.053c-0.107,0.023-0.092,0.13-0.096,0.215
			c-0.012,0.256,0.052,0.498,0.122,0.742c0.213,0.743,0.273,1.463-0.35,2.07c-0.155,0.151-0.242,0.34-0.206,0.567
			c-0.26,0.002-0.521,0.013-0.781,0.001c-0.166-0.007-0.223,0.037-0.223,0.215c0.006,2.797,0.006,5.595,0,8.393
			c0,0.17,0.057,0.204,0.213,0.203c0.708-0.007,1.417-0.002,2.125-0.001c-0.011,0.144-0.022,0.271,0.193,0.271
			c0.302-0.002,0.503-0.009,0.464-0.272c0.175,0,0.349,0,0.524,0c0.179,0.26,0.182,0.697,0.661,0.656
			c0.025-0.002,0.053,0.02,0.079,0.033c0.283,0.146,0.608,0.179,0.87,0.405c0.269,0.231,0.648,0.241,0.993,0.308
			c0.103,0.021,0.224,0.042,0.255,0.17c0.031,0.126-0.076,0.169-0.155,0.231c-0.2,0.159-0.203,0.356-0.008,0.521
			c0.058,0.049,0.083,0.116,0.124,0.175c0.1,0.14,0.163,0.319,0.314,0.405c0.105,0.06,0.185,0.118,0.244,0.225
			c0.063,0.112,0.144,0.218,0.23,0.313c0.091,0.1,0.19,0.105,0.289-0.01C-32.213,39.19-31.989,39.092-31.724,39.087z
			 M-42.251,31.535c0.089,0.32,0.175,0.606,0.247,0.897c0.036,0.148,0.112,0.206,0.258,0.179c0.144-0.026,0.328,0.086,0.393-0.176
			c0.126-0.517,0.287-1.025,0.428-1.538c0.091-0.327,0.086-0.313-0.26-0.333c-0.196-0.012-0.262,0.066-0.297,0.24
			c-0.056,0.276-0.133,0.548-0.201,0.822c-0.13-0.29-0.223-0.575-0.279-0.867c-0.036-0.189-0.144-0.192-0.292-0.195
			c-0.155-0.003-0.242,0.021-0.286,0.201c-0.073,0.304-0.137,0.614-0.268,0.929c-0.069-0.261-0.134-0.493-0.193-0.728
			c-0.102-0.404-0.1-0.399-0.511-0.4c-0.146-0.001-0.187,0.023-0.137,0.178c0.163,0.507,0.31,1.019,0.462,1.528
			c0.121,0.402,0.022,0.328,0.458,0.341c0.12,0.003,0.175-0.032,0.207-0.159C-42.447,32.154-42.349,31.861-42.251,31.535z
			 M-25.115,15.101c-0.013,0.005-0.027,0.01-0.04,0.015c-0.209-0.29-0.434-0.571-0.624-0.873c-0.148-0.236-0.33-0.328-0.605-0.296
			c-0.125,0.015-0.174,0.034-0.172,0.171c0.007,0.578,0.002,1.156,0.003,1.734c0,0.048-0.023,0.122,0.028,0.139
			c0.153,0.052,0.317,0.039,0.47,0.013c0.118-0.021,0.057-0.146,0.059-0.222c0.007-0.325,0.003-0.651,0.003-1.018
			c0.257,0.359,0.496,0.667,0.706,0.994c0.135,0.209,0.301,0.279,0.541,0.264c0.146-0.009,0.201-0.042,0.198-0.196
			c-0.009-0.505,0-1.012-0.004-1.518c-0.003-0.413,0.065-0.338-0.352-0.36c-0.182-0.01-0.218,0.059-0.212,0.222
			C-25.107,14.48-25.115,14.791-25.115,15.101z M-9.45,31.492c0,0,0.001,0,0.001,0c0,0.29,0.005,0.579-0.002,0.868
			c-0.003,0.123,0.037,0.165,0.16,0.162c0.29-0.006,0.58-0.014,0.868,0.003c0.196,0.012,0.239-0.055,0.242-0.242
			c0.003-0.21-0.039-0.315-0.271-0.274c-0.084,0.015-0.174-0.003-0.26,0.004c-0.122,0.01-0.185-0.018-0.183-0.163
			c0.002-0.136,0.064-0.154,0.174-0.147c0.108,0.006,0.218-0.01,0.325,0.004c0.169,0.021,0.203-0.049,0.205-0.206
			c0.002-0.174-0.038-0.258-0.225-0.231c-0.085,0.012-0.174,0-0.26,0.004c-0.124,0.006-0.22,0.011-0.219-0.171
			c0.001-0.169,0.074-0.194,0.209-0.182c0.064,0.007,0.13,0.002,0.195,0.002c0.318,0,0.312,0,0.306-0.317
			c-0.002-0.124-0.044-0.16-0.165-0.157c-0.311,0.007-0.622,0.009-0.933-0.001c-0.14-0.004-0.171,0.053-0.169,0.178
			C-9.445,30.914-9.45,31.203-9.45,31.492z M-25.533,49.328c0.039,0,0.068,0.001,0.097,0c0.341-0.006,0.653-0.257,0.702-0.561
			c0.068-0.429-0.048-0.613-0.479-0.759c-0.054-0.019-0.109-0.035-0.164-0.053c-0.108-0.036-0.254-0.054-0.209-0.214
			c0.039-0.141,0.175-0.127,0.292-0.109c0.048,0.007,0.101,0.021,0.141,0.048c0.119,0.078,0.185,0.058,0.241-0.079
			c0.103-0.246,0.088-0.301-0.167-0.379c-0.131-0.04-0.265-0.07-0.405-0.06c-0.367,0.027-0.624,0.267-0.665,0.622
			c-0.034,0.295,0.169,0.535,0.534,0.631c0.076,0.021,0.156,0.033,0.226,0.067c0.079,0.038,0.148,0.102,0.126,0.204
			c-0.022,0.102-0.087,0.156-0.196,0.17c-0.151,0.02-0.266-0.053-0.377-0.134c-0.077-0.056-0.153-0.178-0.229-0.017
			c-0.061,0.128-0.278,0.248-0.06,0.418C-25.947,49.263-25.75,49.344-25.533,49.328z"/>
		<path fill-rule="evenodd" clip-rule="evenodd" fill="#849D79" d="M-12.626,36.003c0.018,0.615-0.009,1.229-0.039,1.843
			c-0.01,0.194-0.064,0.32-0.309,0.293c-0.239-0.027-0.44,0.067-0.601,0.267c-0.531,0.651-0.992,1.351-1.419,2.072
			c-0.169,0.286-0.347,0.567-0.511,0.856c-0.14,0.247-0.176,0.505-0.023,0.762c0.044,0.074,0.042,0.152,0.043,0.23
			c0.002,0.209,0.001,0.419,0.001,0.646c0.127-0.042,0.205-0.136,0.29-0.216c2.122-2.008,3.529-4.437,4.264-7.258
			c0.163-0.627,0.297-1.261,0.352-1.908c0.017-0.195,0.144-0.187,0.278-0.178c0.18,0.012,0.105,0.142,0.094,0.227
			c-0.164,1.247-0.454,2.463-0.918,3.635c-0.037,0.092-0.023,0.14,0.077,0.18c0.628,0.257,1.256,0.516,1.88,0.783
			c0.133,0.057,0.161-0.012,0.198-0.107c0.405-1.036,0.713-2.101,0.909-3.196c0.079-0.438,0.155-0.879,0.18-1.326
			c0.008-0.133,0.054-0.214,0.213-0.199c0.158,0.015,0.318,0.009,0.477,0.002c0.133-0.006,0.178,0.042,0.163,0.179
			c-0.2,1.743-0.598,3.435-1.26,5.065c-0.29,0.714-0.612,1.412-0.986,2.081c-0.551,0.988-1.184,1.928-1.917,2.796
			c-0.496,0.588-1.006,1.166-1.566,1.689c-0.493,0.461-0.999,0.913-1.556,1.307c-0.504,0.355-0.995,0.729-1.525,1.047
			c-0.783,0.471-1.585,0.895-2.43,1.251c-0.825,0.348-1.665,0.637-2.53,0.863c-0.964,0.253-1.941,0.428-2.93,0.536
			c-0.127,0.015-0.188-0.009-0.179-0.154c0.011-0.18,0.007-0.361,0.001-0.542c-0.004-0.111,0.036-0.145,0.148-0.154
			c1.581-0.146,3.11-0.511,4.591-1.079c0.263-0.102,0.264-0.104,0.155-0.368c-0.23-0.562-0.467-1.12-0.69-1.684
			c-0.061-0.154-0.125-0.191-0.288-0.128c-1.043,0.408-2.125,0.683-3.23,0.86c-0.17,0.027-0.344,0.036-0.516,0.054
			c-0.09,0.01-0.18,0.024-0.17-0.116c0.008-0.107-0.039-0.217,0.151-0.239c0.428-0.051,0.855-0.117,1.279-0.2
			c1.965-0.389,3.78-1.135,5.442-2.255c0.209-0.141,0.412-0.293,0.617-0.44c0.022-0.017,0.038-0.042,0.066-0.074
			c-0.188-0.109-0.393-0.153-0.585-0.224c-0.359-0.132-0.706-0.253-0.941-0.605c-0.175-0.264-0.506-0.323-0.808-0.361
			c-0.484-0.061-0.959,0.045-1.435,0.117c-0.154,0.023-0.278,0.116-0.4,0.207c-0.205,0.151-0.486,0.163-0.682,0.007
			c-0.304-0.243-0.645-0.197-0.969-0.104c-0.353,0.102-0.703,0.243-0.848,0.64c-0.027,0.072-0.101,0.121-0.177,0.088
			c-0.183-0.082-0.354-0.011-0.53,0.019c-0.222,0.036-0.269-0.008-0.27-0.231c0-0.102-0.006-0.203,0.001-0.304
			c0.015-0.197,0-0.328-0.26-0.372c-0.165-0.028-0.292-0.221-0.393-0.382c-0.105-0.17-0.337-0.212-0.495-0.082
			c-0.147,0.121-0.257,0.271-0.338,0.444c-0.111,0.235-0.634,0.264-0.77,0.037c-0.091-0.152-0.197-0.286-0.344-0.384
			c-0.094-0.062-0.123-0.157-0.158-0.251c-0.098-0.263-0.23-0.496-0.474-0.655c-0.15-0.098-0.219-0.224-0.173-0.422
			c0.052-0.227-0.032-0.323-0.264-0.337c-0.269-0.016-0.483-0.133-0.671-0.313c-0.167-0.161-0.335-0.288-0.595-0.202
			c-0.104,0.034-0.23,0.015-0.345,0.007c-0.104-0.007-0.209-0.042-0.232-0.159c-0.026-0.137-0.151-0.166-0.231-0.244
			c0.333-0.418,0.713-0.792,1.074-1.185c0.933-1.015,1.87-2.026,2.808-3.036c0.427-0.46,0.86-0.913,1.291-1.369
			c0.057,0.084,0.044,0.18,0.044,0.273c0,0.484,0.004,0.969-0.002,1.453c-0.002,0.137,0.033,0.192,0.181,0.191
			c1.266-0.004,2.531-0.004,3.796,0c0.14,0,0.209-0.053,0.19-0.19c-0.039-0.295-0.004-0.588-0.001-0.882
			c0.009-0.98,0.003-1.962,0.004-2.942c0-0.094,0.006-0.188,0.01-0.281c0.037,0.033,0.068,0.079,0.111,0.099
			c0.194,0.091,0.301,0.229,0.333,0.45c0.024,0.165,0.145,0.322,0.3,0.368c0.142,0.042,0.227,0.134,0.334,0.209
			c0,0.965,0,1.93,0,2.896c0,0.274,0,0.273,0.285,0.274c0.129,0.001,0.26-0.018,0.383,0.039c-0.199,0.346-0.396,0.693-0.6,1.036
			c-0.023,0.039-0.088,0.051-0.124,0.085c-0.174,0.17-0.447,0.191-0.602,0.367c-0.325,0.369-0.749,0.491-1.204,0.557
			c-0.142,0.021-0.271,0.053-0.353,0.18c-0.075,0.114-0.146,0.232-0.213,0.352c-0.037,0.065-0.073,0.129-0.162,0.116
			c-0.31-0.044-0.538,0.122-0.766,0.293c-0.122,0.092-0.241,0.132-0.415,0.111c-0.352-0.043-0.703-0.027-0.938,0.331
			c-0.063,0.097-0.244,0.089-0.326-0.008c-0.15-0.177-0.341-0.195-0.545-0.207c-0.142-0.009-0.284,0.013-0.422-0.064
			c-0.252-0.141-0.435-0.052-0.502,0.226c-0.06,0.247-0.134,0.285-0.4,0.249c-0.233-0.032-0.393,0.106-0.536,0.268
			c-0.133,0.15-0.098,0.305-0.019,0.463c0.039,0.077,0.114,0.16,0.105,0.233c-0.033,0.298,0.13,0.5,0.292,0.715
			c0.133,0.177,0.287,0.229,0.486,0.13c0.075-0.037,0.15-0.083,0.134-0.174c-0.016-0.093-0.065-0.191-0.166-0.211
			c-0.257-0.05-0.352-0.208-0.342-0.454c0.003-0.103-0.037-0.196-0.078-0.29c-0.03-0.067-0.129-0.125-0.071-0.208
			c0.065-0.094,0.163-0.06,0.258-0.036c0.172,0.044,0.6-0.124,0.629-0.271c0.044-0.226,0.16-0.237,0.341-0.19
			c0.075,0.02,0.159,0.01,0.238,0.006c0.136-0.006,0.24,0.025,0.338,0.142c0.171,0.201,0.797,0.171,0.908-0.052
			c0.109-0.218,0.29-0.257,0.46-0.21c0.38,0.106,0.66-0.057,0.933-0.27c0.127-0.1,0.262-0.151,0.421-0.129
			c0.19,0.026,0.353-0.055,0.413-0.214c0.138-0.363,0.421-0.473,0.763-0.517c0.05-0.007,0.102-0.016,0.146-0.037
			c0.268-0.132,0.584-0.185,0.779-0.442c0.069-0.092,0.161-0.131,0.255-0.185c0.316-0.181,0.653-0.343,0.792-0.725
			c0.051-0.14,0.099-0.288,0.221-0.393c0.188-0.161,0.272-0.368,0.261-0.615c0.273,0.012,0.545,0.069,0.819,0.038
			c0.23-0.025,0.461-0.06,0.689-0.03c0.39,0.051,0.776-0.036,1.163-0.002c0.168,0.015,0.229-0.04,0.224-0.216
			c-0.012-0.434-0.005-0.867-0.002-1.301c0-0.067-0.031-0.144,0.044-0.214c0.067,0.115,0.131,0.221,0.178,0.341
			c0.151,0.386,0.229,0.785,0.253,1.196c0.009,0.161,0.069,0.238,0.254,0.234C-13.927,35.994-13.277,36.002-12.626,36.003z
			 M-9.201,38.707c-0.002-0.083-0.081-0.082-0.135-0.104c-0.614-0.254-1.231-0.501-1.841-0.764c-0.141-0.061-0.18-0.019-0.233,0.101
			c-0.436,0.98-0.97,1.903-1.597,2.774c-0.415,0.576-0.877,1.11-1.352,1.636c-0.079,0.087-0.069,0.131,0.005,0.206
			c0.469,0.473,0.935,0.947,1.397,1.425c0.087,0.09,0.146,0.115,0.24,0.006c0.164-0.192,0.344-0.371,0.513-0.559
			c1.241-1.383,2.216-2.937,2.963-4.635C-9.228,38.766-9.216,38.74-9.201,38.707z M-15.092,43.721
			c0.031,0.15-0.033,0.207-0.176,0.184c-0.149-0.024-0.298-0.05-0.447-0.073c-0.113-0.018-0.223-0.048-0.33,0.036
			c-0.984,0.778-2.057,1.411-3.197,1.929c-0.159,0.072-0.156,0.141-0.098,0.278c0.237,0.558,0.463,1.119,0.694,1.68
			c0.116,0.281,0.116,0.282,0.395,0.157c1.177-0.529,2.277-1.187,3.31-1.958c0.602-0.449,1.17-0.938,1.715-1.456
			c0.073-0.069,0.133-0.126,0.029-0.228c-0.487-0.473-0.971-0.949-1.452-1.429c-0.091-0.091-0.153-0.073-0.232,0.01
			c-0.109,0.115-0.223,0.228-0.344,0.33c-0.093,0.079-0.104,0.143-0.006,0.223C-15.13,43.485-15.071,43.589-15.092,43.721z"/>
		<path fill-rule="evenodd" clip-rule="evenodd" fill="#849D78" d="M-37.8,22.678c0.141-0.017,0.253-0.102,0.368-0.172
			c0.566-0.344,1.181-0.558,1.816-0.733c0.423-0.117,0.854-0.201,1.269-0.35c0.134-0.048,0.281-0.076,0.423-0.079
			c0.461-0.012,0.798-0.25,1.055-0.596c0.28-0.376,0.621-0.634,1.085-0.728c0.192-0.039,0.361-0.133,0.52-0.251
			c0.377-0.279,0.832-0.368,1.262-0.526c0.63-0.232,1.272-0.2,1.919-0.216c0.363-0.01,0.64,0.143,0.896,0.362
			c0.159,0.136,0.295,0.297,0.449,0.439c0.097,0.089,0.129,0.187,0.08,0.319c-0.118-0.017-0.181-0.113-0.239-0.193
			c-0.12-0.168-0.297-0.273-0.427-0.429c-0.057-0.068-0.151-0.104-0.235-0.047c-0.084,0.057-0.015,0.135,0.009,0.194
			c0.124,0.308,0.256,0.611,0.383,0.917c0.128,0.311,0.4,0.412,0.695,0.434c0.401,0.029,0.803,0.096,1.208,0.01
			c0.259-0.055,0.503-0.121,0.666-0.349c0.029-0.042,0.077-0.069,0.104-0.038c0.047,0.053,0.033,0.128-0.009,0.18
			c-0.121,0.15-0.282,0.241-0.467,0.289c-0.125,0.033-0.252,0.059-0.377,0.093c-0.053,0.015-0.125,0.022-0.116,0.103
			c0.009,0.075,0.059,0.109,0.137,0.108c0.13-0.001,0.261,0.015,0.378-0.063c0.214-0.143,0.445-0.261,0.625-0.455
			c0.126-0.135,0.296-0.194,0.487-0.178c0.755,0.063,1.511,0.123,2.266,0.186c0.759,0.064,1.519,0.019,2.278,0.032
			c0.086,0.001,0.171,0.012,0.257,0.019c0.002,0.091-0.069,0.139-0.121,0.195c-0.705,0.765-1.411,1.53-2.119,2.293
			c-1.012,1.092-2.028,2.18-3.036,3.275c-0.125,0.136-0.28,0.252-0.356,0.43c-0.643-0.002-1.287-0.004-1.93-0.006
			c-0.046-0.355-0.168-0.451-0.511-0.397c-0.075,0.012-0.147,0.009-0.206-0.041c-0.181-0.151-0.389-0.23-0.671-0.224
			c0.141-0.119,0.082-0.287,0.195-0.368c0.125-0.09,0.171-0.226,0.248-0.346c0.115-0.179,0.258-0.336,0.497-0.365
			c0.336-0.041,0.551-0.28,0.573-0.629c0.008-0.13,0.011-0.262-0.006-0.39c-0.013-0.097,0.001-0.171,0.071-0.235
			c0.128-0.117,0.16-0.265,0.155-0.433c-0.004-0.122-0.001-0.247,0.021-0.366c0.054-0.275,0.071-0.543-0.073-0.798
			c-0.06-0.106-0.059-0.218,0.028-0.301c0.266-0.256,0.255-0.579,0.24-0.908c-0.007-0.136-0.03-0.243-0.204-0.239
			c-0.172,0.003-0.203,0.101-0.189,0.244c0.025,0.266-0.013,0.504-0.201,0.722c-0.145,0.168-0.153,0.392-0.052,0.594
			c0.19,0.382-0.007,0.768,0.021,1.151c0.003,0.036-0.06,0.076-0.091,0.115c-0.117,0.147-0.191,0.301-0.125,0.499
			c0.026,0.079,0.018,0.172,0.015,0.258c-0.006,0.199-0.084,0.335-0.31,0.33c-0.074-0.002-0.142,0.017-0.208,0.051
			c-0.372,0.191-0.511,0.603-0.813,0.86c-0.031,0.026-0.024,0.096-0.036,0.145c-0.014,0.055-0.027,0.108-0.065,0.157
			c-0.204,0.267-0.16,0.446,0.161,0.549c0.277,0.089,0.538,0.2,0.777,0.361c-1.373,0.002-2.745,0.004-4.117,0.006
			c-0.397,0-0.795,0.003-1.192-0.001c-0.139-0.001-0.198,0.051-0.192,0.192c0.006,0.18,0.003,0.361,0,0.542
			c-0.001,0.055,0.025,0.125-0.036,0.159c-0.068,0.038-0.129-0.014-0.173-0.054c-0.394-0.357-0.884-0.508-1.38-0.634
			c-0.603-0.153-1.22-0.198-1.84-0.202c-0.838-0.004-1.676-0.002-2.514-0.003c-0.036-0.227,0.051-0.416,0.206-0.567
			c0.623-0.607,0.563-1.327,0.35-2.07c-0.07-0.244-0.134-0.486-0.122-0.742c0.003-0.085-0.011-0.192,0.096-0.215
			c0.101-0.022,0.217-0.048,0.302,0.053c0.023,0.027,0.044,0.059,0.071,0.082c0.058,0.051,0.1,0.169,0.17,0.146
			c0.087-0.028,0.086-0.148,0.104-0.238c0.044-0.221,0.048-0.444,0.038-0.668c-0.004-0.082-0.007-0.15-0.119-0.111
			c-0.206,0.071-0.106-0.067-0.098-0.143L-37.8,22.678z"/>
		<path fill-rule="evenodd" clip-rule="evenodd" fill="#B4C3AD" d="M-26.595,27.146c0.643,0.002,1.287,0.004,1.93,0.006
			c0.073-0.002,0.146-0.004,0.219-0.007c0.6,0.048,1.201,0.063,1.801,0.001c0.395,0.003,0.788,0.012,1.182,0.007
			c0.235-0.003,0.472,0.033,0.706-0.026c0.093,0.007,0.186,0.02,0.279,0.02c1.646,0.001,3.292,0.003,4.939-0.003
			c0.177-0.001,0.243,0.043,0.233,0.228c-0.015,0.288-0.006,0.578-0.001,0.866c0.001,0.063-0.04,0.144,0.069,0.203
			c0.136-0.37,0.276-0.73,0.4-1.096c0.05-0.147,0.125-0.204,0.282-0.2c0.419,0.009,0.838,0.001,1.256,0
			c0.622,0.002,1.244,0.003,1.866,0.006c0.23,0.001,0.236,0.013,0.151,0.234c-0.56,1.447-1.119,2.893-1.682,4.339
			c-0.037,0.096-0.034,0.152,0.051,0.221c0.527,0.421,0.864,0.98,1.124,1.592c0.292,0.688,0.452,1.41,0.555,2.147
			c0.041,0.289,0.022,0.312-0.263,0.313c-0.376,0.001-0.752,0.003-1.128,0.005c-0.651-0.001-1.301-0.009-1.952,0.003
			c-0.185,0.004-0.245-0.073-0.254-0.234c-0.024-0.411-0.103-0.811-0.253-1.196c-0.047-0.12-0.111-0.226-0.178-0.341
			c-0.075,0.07-0.044,0.146-0.044,0.214c-0.003,0.434-0.01,0.867,0.002,1.301c0.005,0.176-0.055,0.23-0.224,0.216
			c-0.387-0.034-0.773,0.053-1.163,0.002c-0.228-0.029-0.459,0.005-0.689,0.03c-0.274,0.031-0.546-0.026-0.82-0.038
			c-0.13,0.021-0.269-0.036-0.393,0.043c-0.124-0.057-0.254-0.038-0.383-0.039c-0.285-0.001-0.285,0-0.285-0.274
			c0-0.966,0-1.931,0-2.896c0-0.185-0.001-0.368-0.001-0.553c0-0.325,0-0.649,0.002-0.975c0-0.093,0-0.17-0.13-0.173
			c-0.179-0.004-0.358-0.024-0.538-0.038c-0.113,0.002-0.227,0.003-0.34,0.006c-0.059,0.001-0.128,0.007-0.107,0.089
			c0.043,0.171-0.051,0.351,0.036,0.517c-0.003,0.095-0.01,0.188-0.01,0.282c-0.001,0.98,0.005,1.962-0.004,2.942
			c-0.003,0.294-0.037,0.587,0.001,0.882c0.019,0.138-0.051,0.19-0.19,0.19c-1.265-0.004-2.531-0.004-3.796,0
			c-0.147,0.001-0.183-0.055-0.181-0.191c0.007-0.484,0.003-0.969,0.002-1.453c0-0.094,0.012-0.189-0.044-0.273
			c0.057-0.092,0.027-0.197,0.046-0.295c0-0.438-0.001-0.877-0.001-1.316c-0.002-0.396-0.003-0.791-0.008-1.187
			c-0.001-0.066,0.025-0.168-0.082-0.168c-0.242,0.001-0.486-0.049-0.726,0.026c-0.051-0.074-0.129-0.047-0.197-0.048
			c-0.235-0.004-0.47-0.002-0.706-0.003c-0.236,0.002-0.473,0.021-0.707,0.001c-0.217-0.018-0.259,0.061-0.258,0.264
			c0.008,0.922-0.002,1.843-0.006,2.764c0,0.556-0.005,1.111,0.005,1.667c0.003,0.167-0.041,0.225-0.217,0.224
			c-0.353-0.001-0.707-0.041-1.058,0.03c-0.603-0.011-1.205-0.021-1.807,0.005c-0.267-0.002-0.535-0.014-0.802-0.004
			c-0.159,0.005-0.219-0.041-0.209-0.207c0.023-0.424-0.013-0.847-0.005-1.271c0.015-0.792-0.017-1.585-0.029-2.377
			c-0.003-0.202,0.055-0.4,0.037-0.604c-0.043-0.49-0.041-0.49-0.519-0.49c-0.306,0-0.309,0-0.303,0.301
			c0.018,0.921-0.365,1.645-1.085,2.199c-0.714,0.551-1.527,0.825-2.427,0.84c-0.167,0.003-0.233,0.055-0.227,0.227
			c0.01,0.304,0.003,0.607,0.003,0.911c0,0.501,0.032,0.418-0.432,0.426c-0.175,0-0.349,0-0.524,0
			c-0.219,0.001-0.438,0.001-0.657,0.001c-0.708-0.001-1.417-0.006-2.125,0.001c-0.156,0.001-0.213-0.033-0.213-0.203
			c0.005-2.798,0.005-5.596,0-8.393c0-0.179,0.058-0.222,0.223-0.215c0.26,0.011,0.521,0,0.781-0.001
			c0.838,0.001,1.676-0.001,2.514,0.003c0.62,0.003,1.237,0.048,1.84,0.202c0.496,0.126,0.986,0.277,1.38,0.634
			c0.044,0.04,0.105,0.092,0.173,0.054c0.061-0.034,0.035-0.104,0.036-0.159c0.002-0.18,0.006-0.361,0-0.542
			c-0.005-0.141,0.054-0.193,0.192-0.192c0.397,0.004,0.794,0.001,1.192,0.001c1.373-0.002,2.745-0.004,4.117-0.006
			C-27.101,27.101-26.848,27.247-26.595,27.146z M-16.144,31.393c-0.012,0-0.024,0.001-0.037,0.002c0-0.079,0-0.158,0-0.236
			c0-1.194-0.003-2.387,0.004-3.581c0.001-0.173-0.049-0.218-0.219-0.216c-0.81,0.008-1.621,0.01-2.431-0.001
			c-0.19-0.002-0.224,0.064-0.223,0.236c0.006,1.491,0.003,2.979,0.003,4.47c0,0.94,0.003,1.881-0.003,2.822
			c-0.001,0.155,0.034,0.213,0.204,0.211c0.817-0.009,1.635-0.01,2.453,0c0.177,0.002,0.218-0.056,0.215-0.222
			c-0.008-0.659-0.004-1.317-0.001-1.976c0-0.068-0.024-0.141,0.018-0.205c0.057-0.003,0.079,0.04,0.107,0.069
			c0.587,0.584,0.969,1.285,1.18,2.084c0.03,0.112,0.017,0.252,0.221,0.25c0.911-0.011,1.823-0.006,2.735-0.003
			c0.131,0.001,0.168-0.022,0.138-0.174c-0.23-1.143-0.744-2.133-1.564-2.958c-0.129-0.13-0.14-0.233-0.077-0.395
			c0.526-1.344,1.042-2.691,1.57-4.035c0.067-0.171,0.005-0.173-0.129-0.173c-0.796,0.003-1.592,0.001-2.388,0.001
			c-0.341,0-0.338,0.002-0.451,0.32C-15.259,28.922-15.702,30.157-16.144,31.393z M-39.621,31.215c0,1.223,0.001,2.444-0.002,3.667
			c0,0.132,0.008,0.215,0.18,0.213c0.832-0.008,1.664-0.006,2.495-0.002c0.144,0.001,0.19-0.056,0.188-0.192
			c-0.006-0.289-0.001-0.579-0.001-0.868c0-0.46,0-0.464,0.468-0.46c0.782,0.007,1.544-0.085,2.235-0.483
			c0.733-0.423,1.16-1.046,1.169-1.914c0.005-0.491,0.013-0.983-0.009-1.474c-0.03-0.688-0.331-1.246-0.888-1.656
			c-0.734-0.54-1.598-0.643-2.464-0.672c-1.047-0.035-2.097-0.004-3.146-0.013c-0.183-0.001-0.229,0.055-0.229,0.232
			C-39.617,28.801-39.62,30.007-39.621,31.215z M-22.814,27.365c-0.948,0-1.896,0.001-2.843-0.002c-0.131,0-0.216,0.006-0.214,0.179
			c0.008,0.767,0.006,1.533,0.001,2.299c-0.001,0.133,0.045,0.176,0.176,0.173c0.325-0.008,0.651-0.003,0.977-0.003
			c0.385,0,0.383,0,0.383,0.384c0,1.49,0.002,2.98-0.004,4.47c-0.001,0.176,0.041,0.236,0.227,0.234c0.846-0.011,1.693-0.013,2.54,0
			c0.219,0.004,0.277-0.052,0.275-0.274c-0.01-1.533-0.003-3.067-0.009-4.6c-0.001-0.173,0.049-0.223,0.219-0.218
			c0.369,0.013,0.738-0.002,1.107,0.007c0.15,0.004,0.2-0.04,0.198-0.194c-0.007-0.751-0.008-1.504,0-2.256
			c0.002-0.169-0.055-0.204-0.211-0.203C-20.934,27.368-21.874,27.365-22.814,27.365z M-29.597,27.365
			c-0.947,0-1.895,0.002-2.842-0.002c-0.145-0.001-0.203,0.031-0.201,0.19c0.008,0.759,0.007,1.519,0.001,2.278
			c-0.001,0.143,0.045,0.187,0.186,0.184c0.369-0.008,0.738,0.01,1.106-0.008c0.199-0.009,0.238,0.06,0.237,0.244
			c-0.007,1.534,0,3.067-0.009,4.6c-0.001,0.206,0.063,0.25,0.256,0.248c0.824-0.01,1.649-0.012,2.473,0.001
			c0.216,0.004,0.279-0.047,0.277-0.271c-0.011-1.533-0.003-3.066-0.009-4.599c-0.001-0.169,0.041-0.228,0.216-0.222
			c0.383,0.013,0.767-0.004,1.15,0.008c0.167,0.006,0.205-0.051,0.204-0.209c-0.008-0.744-0.01-1.489,0.001-2.234
			c0.003-0.184-0.065-0.211-0.225-0.21C-27.717,27.368-28.657,27.365-29.597,27.365z"/>
		<path fill-rule="evenodd" clip-rule="evenodd" fill="#849D78" d="M-13.299,27.147c-0.418,0.001-0.837,0.008-1.256,0
			c-0.157-0.003-0.232,0.053-0.282,0.2c-0.124,0.366-0.264,0.727-0.4,1.096c-0.109-0.059-0.068-0.14-0.069-0.203
			c-0.005-0.289-0.014-0.578,0.001-0.866c0.009-0.185-0.057-0.229-0.233-0.228c-1.646,0.006-3.293,0.004-4.939,0.003
			c-0.093,0-0.187-0.013-0.279-0.02c0.018-0.125,0.081-0.231,0.133-0.341c0.49-1.039,0.979-2.078,1.472-3.116
			c0.439-0.927,0.882-1.852,1.324-2.777c0.294-0.007,0.592,0.035,0.879-0.065c0.053-0.019,0.116-0.01,0.158-0.061
			c0.227-0.276,0.672-0.243,0.937,0.046c0.193,0.211,0.431,0.325,0.683,0.431c0.2,0.084,0.352,0.209,0.393,0.448
			c0.049,0.287,0.093,0.58,0.148,0.857c0.055,0.273,0.068,0.56,0.158,0.832c0.225,0.684,0.458,1.364,0.79,2.004
			c0.135,0.26,0.205,0.523,0.257,0.811c0.036,0.197,0.183,0.376,0.147,0.604C-13.297,26.915-13.293,27.032-13.299,27.147z"/>
		<path fill-rule="evenodd" clip-rule="evenodd" fill="#869E7A" d="M-37.798,22.675c-0.072-0.031-0.081,0.034-0.108,0.071
			c-1.18,1.656-1.976,3.48-2.415,5.464c-0.11,0.499-0.205,1.001-0.261,1.509c-0.021,0.19-0.177,0.097-0.275,0.109
			c-0.13,0.017-0.104-0.08-0.095-0.16c0.152-1.25,0.453-2.463,0.909-3.636c0.057-0.146,0.022-0.203-0.114-0.258
			c-0.609-0.245-1.217-0.496-1.822-0.751c-0.11-0.046-0.16-0.037-0.206,0.081c-0.435,1.133-0.76,2.296-0.957,3.494
			c-0.057,0.349-0.121,0.695-0.136,1.048c-0.006,0.126-0.052,0.2-0.201,0.188c-0.165-0.014-0.333-0.013-0.499-0.002
			c-0.15,0.011-0.17-0.064-0.154-0.184c0.114-0.866,0.239-1.729,0.446-2.579c0.301-1.235,0.725-2.422,1.282-3.564
			c0.423-0.866,0.898-1.698,1.453-2.489c0.457-0.652,0.946-1.272,1.479-1.864c0.812-0.902,1.698-1.713,2.661-2.453
			c1.051-0.806,2.177-1.479,3.37-2.041c1.328-0.625,2.716-1.077,4.157-1.366c0.638-0.128,1.283-0.202,1.925-0.298
			c0.067-0.01,0.135-0.026,0.115,0.103c-0.024,0.163-0.027,0.335-0.004,0.498c0.033,0.222-0.067,0.29-0.263,0.303
			c-0.598,0.04-1.185,0.147-1.771,0.268c-0.969,0.199-1.913,0.486-2.836,0.843c-0.126,0.049-0.122,0.103-0.08,0.203
			c0.256,0.613,0.512,1.226,0.762,1.841c0.05,0.125,0.119,0.141,0.234,0.097c0.978-0.376,1.983-0.654,3.015-0.831
			c0.248-0.042,0.498-0.076,0.748-0.106c0.084-0.01,0.197-0.046,0.187,0.119c-0.008,0.123,0.024,0.252-0.165,0.262
			c-0.31,0.016-0.614,0.079-0.919,0.128c-1.151,0.187-2.26,0.521-3.331,0.977c-1.235,0.527-2.383,1.205-3.428,2.052
			c-0.986,0.799-1.869,1.699-2.621,2.723c-0.043,0.059-0.127,0.106-0.085,0.204L-37.798,22.675z M-38.043,18.867
			c0.516,0.523,1.031,1.041,1.539,1.564c0.105,0.108,0.159,0.041,0.225-0.03c0.417-0.444,0.899-0.813,1.38-1.181
			c0.916-0.699,1.901-1.285,2.956-1.75c0.165-0.072,0.188-0.143,0.119-0.304c-0.25-0.583-0.49-1.172-0.726-1.762
			c-0.053-0.133-0.1-0.173-0.25-0.107c-0.835,0.368-1.628,0.81-2.396,1.3C-36.228,17.257-37.174,18.022-38.043,18.867z
			 M-39.867,25.45c0.09,0.006,0.094-0.074,0.12-0.127c0.168-0.344,0.32-0.695,0.501-1.031c0.664-1.232,1.468-2.363,2.445-3.368
			c0.097-0.1,0.103-0.161,0-0.26c-0.478-0.461-0.952-0.927-1.421-1.397c-0.09-0.09-0.139-0.102-0.232,0
			c-0.607,0.657-1.183,1.339-1.698,2.072c-0.662,0.942-1.222,1.939-1.691,2.988c-0.12,0.268-0.12,0.266,0.152,0.377
			c0.548,0.224,1.094,0.45,1.642,0.674C-39.99,25.403-39.929,25.426-39.867,25.45z"/>
		<path fill-rule="evenodd" clip-rule="evenodd" fill="#869E7A" d="M-34.016,44.216c0.013,0.131,0.132,0.159,0.216,0.212
			c1.388,0.885,2.883,1.517,4.482,1.907c0.637,0.156,1.284,0.262,1.933,0.343c0.223,0.027,0.115,0.177,0.129,0.274
			c0.021,0.153-0.098,0.081-0.161,0.075c-1.278-0.121-2.509-0.445-3.707-0.896c-0.192-0.072-0.271-0.052-0.347,0.146
			c-0.229,0.593-0.478,1.179-0.727,1.763c-0.049,0.116-0.026,0.159,0.085,0.203c1.102,0.436,2.238,0.753,3.404,0.954
			c0.439,0.076,0.884,0.122,1.327,0.175c0.086,0.011,0.132,0.03,0.129,0.127c-0.004,0.202-0.006,0.405,0.001,0.607
			c0.004,0.119-0.056,0.127-0.148,0.119c-1.116-0.083-2.207-0.318-3.282-0.606c-1.052-0.281-2.066-0.682-3.042-1.166
			c-0.807-0.4-1.592-0.842-2.334-1.357c-0.588-0.408-1.155-0.846-1.697-1.313c-0.399-0.344-0.807-0.686-1.16-1.075
			c-0.471-0.521-0.954-1.032-1.386-1.591c-0.42-0.544-0.824-1.098-1.179-1.684c-0.426-0.705-0.815-1.431-1.148-2.188
			c-0.527-1.2-0.921-2.439-1.198-3.718c-0.138-0.635-0.213-1.279-0.305-1.922c-0.022-0.153,0.024-0.21,0.181-0.198
			c0.151,0.011,0.304,0.011,0.456-0.001c0.15-0.012,0.206,0.052,0.218,0.195c0.101,1.159,0.34,2.292,0.694,3.399
			c0.121,0.377,0.265,0.747,0.393,1.122c0.04,0.116,0.084,0.159,0.218,0.103c0.611-0.26,1.226-0.511,1.843-0.756
			c0.149-0.06,0.125-0.137,0.081-0.252c-0.314-0.808-0.555-1.639-0.72-2.49c-0.076-0.388-0.126-0.781-0.191-1.171
			c-0.017-0.1,0.008-0.16,0.12-0.146c0.1,0.013,0.237-0.063,0.26,0.134c0.13,1.127,0.395,2.224,0.773,3.293
			c0.694,1.96,1.746,3.702,3.161,5.226c0.686,0.737,1.446,1.39,2.262,1.978c0.068,0.05,0.129,0.118,0.225,0.119
			C-34.125,44.22-34.071,44.219-34.016,44.216z M-36.695,42.453c-0.036-0.042-0.068-0.079-0.101-0.116
			c-0.296-0.335-0.605-0.66-0.886-1.009c-0.837-1.04-1.527-2.172-2.061-3.396c-0.059-0.135-0.117-0.141-0.237-0.09
			c-0.612,0.259-1.225,0.516-1.842,0.761c-0.14,0.056-0.12,0.107-0.071,0.217c0.265,0.594,0.552,1.177,0.877,1.74
			c0.716,1.236,1.557,2.379,2.552,3.406c0.102,0.105,0.161,0.119,0.271,0.006c0.459-0.472,0.929-0.933,1.395-1.398
			C-36.763,42.538-36.733,42.498-36.695,42.453z M-31.766,45.929c-0.007-0.104-0.105-0.107-0.17-0.138
			c-0.808-0.372-1.585-0.799-2.322-1.298c-0.718-0.486-1.388-1.033-2.019-1.627c-0.106-0.099-0.162-0.098-0.26,0.002
			c-0.453,0.458-0.908,0.913-1.373,1.357c-0.134,0.129-0.103,0.197,0.014,0.306c0.586,0.548,1.198,1.064,1.847,1.537
			c1.02,0.742,2.101,1.377,3.253,1.892c0.119,0.053,0.176,0.065,0.234-0.084c0.224-0.571,0.466-1.135,0.7-1.701
			C-31.828,46.095-31.798,46.013-31.766,45.929z"/>
		<path fill-rule="evenodd" clip-rule="evenodd" fill="#869E7A" d="M-17.168,18.993c-0.175-0.208-0.42-0.319-0.646-0.451
			c-1.515-0.887-3.142-1.477-4.865-1.804c-0.325-0.062-0.653-0.114-0.983-0.135c-0.204-0.013-0.261-0.082-0.246-0.274
			c0.017-0.219,0.178-0.12,0.258-0.11c0.699,0.09,1.392,0.218,2.073,0.405c0.557,0.153,1.108,0.32,1.643,0.539
			c0.102,0.042,0.153,0.027,0.196-0.078c0.259-0.635,0.52-1.27,0.786-1.901c0.041-0.098,0.021-0.133-0.076-0.17
			c-1.166-0.45-2.358-0.798-3.596-0.981c-0.377-0.056-0.755-0.111-1.133-0.155c-0.123-0.015-0.155-0.064-0.15-0.178
			c0.008-0.195,0.01-0.391,0-0.586c-0.005-0.103,0.03-0.127,0.121-0.115c1.304,0.164,2.589,0.4,3.846,0.801
			c1.503,0.48,2.918,1.136,4.253,1.97c0.777,0.486,1.508,1.03,2.206,1.627c0.734,0.628,1.418,1.303,2.049,2.028
			c0.731,0.84,1.38,1.745,1.948,2.708c0.741,1.258,1.326,2.584,1.759,3.976c0.297,0.955,0.491,1.935,0.618,2.928
			c0.024,0.193,0.042,0.387,0.077,0.579c0.032,0.172-0.019,0.238-0.198,0.221c-0.143-0.014-0.29-0.012-0.433,0
			c-0.149,0.013-0.208-0.049-0.219-0.192c-0.054-0.718-0.189-1.425-0.35-2.127c-0.188-0.823-0.441-1.625-0.744-2.412
			c-0.036-0.094-0.069-0.138-0.186-0.087c-0.61,0.262-1.224,0.518-1.839,0.766c-0.131,0.053-0.159,0.106-0.106,0.24
			c0.458,1.158,0.738,2.363,0.907,3.594c0.012,0.085,0.067,0.212-0.112,0.219c-0.143,0.004-0.246-0.004-0.267-0.189
			c-0.138-1.244-0.451-2.446-0.9-3.614c-0.58-1.508-1.381-2.887-2.41-4.136c-0.864-1.049-1.855-1.957-2.963-2.739
			c-0.046-0.033-0.1-0.055-0.15-0.082C-17.044,19.021-17.095,18.984-17.168,18.993z M-14.749,20.511
			c0.041-0.036,0.075-0.063,0.104-0.092c0.487-0.484,0.972-0.971,1.462-1.452c0.08-0.078,0.066-0.117-0.01-0.183
			c-0.354-0.308-0.697-0.628-1.055-0.931c-1.243-1.051-2.621-1.887-4.104-2.555c-0.136-0.062-0.198-0.045-0.255,0.099
			c-0.233,0.59-0.47,1.18-0.724,1.762c-0.078,0.178-0.041,0.244,0.128,0.319c1.617,0.723,3.065,1.698,4.338,2.931
			C-14.83,20.443-14.792,20.474-14.749,20.511z M-12.835,19.188c-0.033,0.028-0.074,0.058-0.109,0.093
			c-0.471,0.47-0.937,0.944-1.414,1.408c-0.111,0.108-0.061,0.16,0.019,0.241c0.654,0.667,1.218,1.407,1.731,2.185
			c0.462,0.7,0.86,1.437,1.203,2.203c0.04,0.088,0.063,0.17,0.2,0.111c0.63-0.268,1.265-0.528,1.9-0.785
			c0.103-0.042,0.111-0.089,0.069-0.177c-0.085-0.176-0.165-0.353-0.248-0.529c-0.814-1.725-1.891-3.269-3.205-4.649
			C-12.728,19.249-12.76,19.195-12.835,19.188z"/>
		<path fill-rule="evenodd" clip-rule="evenodd" fill="#849D78" d="M-36.281,35.959c0.464-0.008,0.432,0.075,0.432-0.426
			c0-0.304,0.007-0.607-0.003-0.911c-0.006-0.172,0.06-0.224,0.227-0.227c0.899-0.015,1.712-0.289,2.427-0.84
			c0.72-0.555,1.104-1.278,1.085-2.199c-0.006-0.301-0.002-0.301,0.303-0.301c0.478,0,0.475,0,0.519,0.49
			c0.018,0.203-0.041,0.401-0.037,0.604c0.012,0.792,0.043,1.585,0.029,2.377c-0.008,0.425,0.029,0.848,0.005,1.271
			c-0.01,0.166,0.05,0.212,0.209,0.207c0.267-0.01,0.535,0.002,0.802,0.004c-0.367,0.782-0.734,1.563-1.101,2.345
			c-0.146,0.04-0.239-0.063-0.348-0.125c-0.041-0.022-0.088-0.068-0.134-0.021c-0.045,0.048,0,0.097,0.024,0.135
			c0.046,0.072,0.102,0.138,0.155,0.205c0.066,0.083,0.1,0.172,0.051,0.276c0.024,0.105-0.051,0.178-0.089,0.263
			c-0.265,0.005-0.489,0.104-0.662,0.305c-0.099,0.115-0.198,0.109-0.289,0.01c-0.087-0.096-0.167-0.201-0.23-0.313
			c-0.06-0.106-0.139-0.165-0.244-0.225c-0.151-0.086-0.214-0.266-0.314-0.405c-0.042-0.059-0.066-0.126-0.124-0.175
			c-0.195-0.164-0.192-0.361,0.008-0.521c0.079-0.063,0.187-0.105,0.155-0.231c-0.031-0.128-0.152-0.149-0.255-0.17
			c-0.344-0.066-0.724-0.076-0.993-0.308c-0.262-0.227-0.587-0.259-0.87-0.405c-0.026-0.014-0.054-0.035-0.079-0.033
			C-36.099,36.656-36.102,36.219-36.281,35.959z"/>
		<path fill-rule="evenodd" clip-rule="evenodd" fill="#1D4B07" d="M-31.724,39.087c0.038-0.085,0.113-0.157,0.089-0.263
			c0.153-0.12,0.174-0.311,0.252-0.471c0.367-0.781,0.734-1.563,1.101-2.345c0.603-0.025,1.205-0.016,1.807-0.005
			c-0.757,1.125-1.514,2.25-2.27,3.375c-0.785,1.166-1.569,2.333-2.354,3.499c-0.014,0.02-0.029,0.039-0.043,0.059
			c0.034,0.019,0.063,0.016,0.085-0.02c0.366-0.39,0.734-0.777,1.097-1.169c2.349-2.535,4.696-5.071,7.046-7.605
			c0.126-0.136,0.235-0.292,0.397-0.393c-0.02,0.098,0.011,0.203-0.046,0.295c-0.431,0.456-0.864,0.909-1.291,1.369
			c-0.938,1.01-1.875,2.021-2.808,3.036c-0.36,0.393-0.741,0.767-1.074,1.185c-0.233,0.173-0.406,0.405-0.602,0.615
			c-1.229,1.319-2.455,2.644-3.681,3.966c-0.055,0.003-0.109,0.004-0.141-0.055c0.867-1.609,1.576-3.295,2.378-4.936
			C-31.757,39.182-31.742,39.133-31.724,39.087z"/>
		<path fill-rule="evenodd" clip-rule="evenodd" fill="#1D4B07" d="M-17.168,18.993c0.073-0.009,0.124,0.027,0.166,0.082
			c-0.248,0.534-0.497,1.067-0.742,1.602c-0.032,0.07-0.087,0.134-0.084,0.218c-0.441,0.925-0.884,1.85-1.324,2.777
			c-0.493,1.038-0.982,2.077-1.472,3.116c-0.052,0.11-0.116,0.217-0.133,0.341c-0.233,0.059-0.471,0.022-0.706,0.025
			c-0.394,0.005-0.788-0.004-1.182-0.007c0.898-1.333,1.796-2.667,2.693-4.001c0.656-0.975,1.31-1.95,1.965-2.926
			c0.016-0.016,0.047-0.027,0.013-0.054c0,0-0.02,0.022-0.03,0.034c-0.042,0.037-0.089,0.07-0.127,0.111
			c-1.347,1.454-2.693,2.907-4.038,4.362c-0.76,0.823-1.518,1.648-2.276,2.472c-0.073,0.002-0.146,0.005-0.219,0.007
			c0.076-0.178,0.231-0.294,0.356-0.43c1.008-1.095,2.023-2.183,3.036-3.275c0.708-0.763,1.414-1.528,2.119-2.293
			c0.052-0.056,0.123-0.104,0.121-0.195c0.059-0.008,0.105-0.035,0.147-0.08c0.557-0.605,1.116-1.209,1.673-1.813
			C-17.195,19.045-17.184,19.018-17.168,18.993z"/>
		<path fill-rule="evenodd" clip-rule="evenodd" fill="#869E7A" d="M-42.251,31.535c-0.098,0.326-0.196,0.619-0.271,0.919
			c-0.031,0.127-0.087,0.162-0.207,0.159c-0.436-0.013-0.337,0.062-0.458-0.341c-0.153-0.51-0.3-1.021-0.462-1.528
			c-0.05-0.154-0.009-0.179,0.137-0.178c0.411,0.001,0.41-0.004,0.511,0.4c0.059,0.234,0.124,0.467,0.193,0.728
			c0.131-0.314,0.195-0.625,0.268-0.929c0.043-0.181,0.131-0.204,0.286-0.201c0.148,0.003,0.255,0.006,0.292,0.195
			c0.056,0.292,0.149,0.577,0.279,0.867c0.068-0.274,0.145-0.546,0.201-0.822c0.035-0.174,0.101-0.252,0.297-0.24
			c0.346,0.02,0.351,0.006,0.26,0.333c-0.142,0.513-0.302,1.021-0.428,1.538c-0.064,0.262-0.249,0.149-0.393,0.176
			c-0.146,0.027-0.222-0.03-0.258-0.179C-42.076,32.142-42.162,31.855-42.251,31.535z"/>
		<path fill-rule="evenodd" clip-rule="evenodd" fill="#869E7A" d="M-25.115,15.101c0-0.31,0.008-0.621-0.003-0.931
			c-0.006-0.163,0.03-0.232,0.212-0.222c0.417,0.022,0.349-0.053,0.352,0.36c0.004,0.506-0.004,1.012,0.004,1.518
			c0.003,0.155-0.052,0.187-0.198,0.196c-0.24,0.015-0.406-0.055-0.541-0.264c-0.21-0.327-0.448-0.635-0.706-0.994
			c0,0.367,0.004,0.692-0.003,1.018c-0.002,0.076,0.059,0.202-0.059,0.222c-0.153,0.026-0.317,0.039-0.47-0.013
			c-0.051-0.017-0.028-0.091-0.028-0.139c-0.001-0.578,0.004-1.156-0.003-1.734c-0.002-0.137,0.047-0.157,0.172-0.171
			c0.275-0.032,0.457,0.06,0.605,0.296c0.19,0.302,0.414,0.583,0.624,0.873C-25.142,15.111-25.128,15.106-25.115,15.101z
			 M-25.105,15.196l0.008-0.014l-0.011-0.002L-25.105,15.196z"/>
		<path fill-rule="evenodd" clip-rule="evenodd" fill="#869E7A" d="M-9.45,31.492c0-0.289,0.004-0.578-0.002-0.867
			c-0.002-0.125,0.029-0.182,0.169-0.178c0.311,0.01,0.622,0.008,0.933,0.001c0.121-0.003,0.163,0.033,0.165,0.157
			c0.005,0.317,0.012,0.317-0.306,0.317c-0.065,0-0.13,0.005-0.195-0.002c-0.136-0.013-0.208,0.013-0.209,0.182
			c-0.001,0.182,0.095,0.177,0.219,0.171c0.086-0.004,0.175,0.008,0.26-0.004c0.188-0.026,0.228,0.058,0.225,0.231
			c-0.002,0.157-0.036,0.228-0.205,0.206c-0.106-0.014-0.217,0.002-0.325-0.004c-0.11-0.007-0.171,0.012-0.174,0.147
			c-0.002,0.146,0.061,0.173,0.183,0.163c0.086-0.007,0.175,0.011,0.26-0.004c0.232-0.041,0.274,0.064,0.271,0.274
			c-0.002,0.188-0.046,0.254-0.242,0.242c-0.288-0.017-0.578-0.009-0.868-0.003c-0.123,0.003-0.164-0.039-0.16-0.162
			c0.007-0.289,0.002-0.578,0.002-0.868C-9.449,31.492-9.449,31.492-9.45,31.492z"/>
		<path fill-rule="evenodd" clip-rule="evenodd" fill="#869E7A" d="M-25.533,49.328c-0.218,0.016-0.414-0.065-0.59-0.203
			c-0.218-0.17-0.001-0.29,0.06-0.418c0.075-0.161,0.152-0.039,0.229,0.017c0.111,0.081,0.226,0.153,0.377,0.134
			c0.108-0.014,0.174-0.068,0.196-0.17c0.022-0.103-0.047-0.166-0.126-0.204c-0.07-0.034-0.15-0.047-0.226-0.067
			c-0.365-0.096-0.568-0.336-0.534-0.631c0.042-0.355,0.298-0.595,0.665-0.622c0.14-0.011,0.274,0.02,0.405,0.06
			c0.255,0.078,0.27,0.133,0.167,0.379c-0.057,0.137-0.123,0.157-0.241,0.079c-0.041-0.026-0.093-0.041-0.141-0.048
			c-0.117-0.018-0.253-0.031-0.292,0.109c-0.045,0.16,0.102,0.178,0.209,0.214c0.054,0.018,0.109,0.034,0.164,0.053
			c0.431,0.146,0.547,0.33,0.479,0.759c-0.048,0.304-0.361,0.555-0.702,0.561C-25.465,49.329-25.494,49.328-25.533,49.328z"/>
		<path fill-rule="evenodd" clip-rule="evenodd" fill="#849D79" d="M-37.462,35.96c0.219,0,0.438,0,0.657-0.001
			c0.039,0.264-0.162,0.271-0.464,0.272C-37.484,36.231-37.473,36.104-37.462,35.96z"/>
		<path fill-rule="evenodd" clip-rule="evenodd" fill="#FDFEFD" d="M-9.201,38.707c-0.015,0.033-0.027,0.059-0.039,0.086
			c-0.748,1.698-1.722,3.252-2.963,4.635c-0.169,0.188-0.349,0.366-0.513,0.559c-0.094,0.109-0.153,0.084-0.24-0.006
			c-0.462-0.478-0.929-0.952-1.397-1.425c-0.075-0.075-0.084-0.119-0.005-0.206c0.474-0.525,0.937-1.06,1.352-1.636
			c0.626-0.871,1.161-1.794,1.597-2.774c0.053-0.119,0.092-0.161,0.233-0.101c0.61,0.263,1.227,0.51,1.841,0.764
			C-9.282,38.625-9.204,38.624-9.201,38.707z"/>
		<path fill-rule="evenodd" clip-rule="evenodd" fill="#FDFEFD" d="M-15.092,43.721c0.021-0.132-0.038-0.235-0.139-0.317
			c-0.098-0.08-0.087-0.144,0.006-0.223c0.121-0.103,0.234-0.215,0.344-0.33c0.079-0.083,0.141-0.101,0.232-0.01
			c0.481,0.479,0.965,0.956,1.452,1.429c0.104,0.102,0.043,0.158-0.029,0.228c-0.544,0.518-1.113,1.007-1.715,1.456
			c-1.033,0.771-2.133,1.429-3.31,1.958c-0.278,0.125-0.279,0.124-0.395-0.157c-0.231-0.561-0.457-1.122-0.694-1.68
			c-0.058-0.138-0.061-0.206,0.098-0.278c1.14-0.518,2.213-1.15,3.197-1.929c0.107-0.084,0.217-0.054,0.33-0.036
			c0.149,0.023,0.298,0.049,0.447,0.073C-15.125,43.928-15.062,43.871-15.092,43.721z"/>
		<path fill-rule="evenodd" clip-rule="evenodd" fill="#FDFEFD" d="M-18.594,36.002c0.124-0.079,0.262-0.022,0.393-0.043
			c0.012,0.247-0.072,0.454-0.26,0.615c-0.123,0.104-0.17,0.253-0.221,0.393c-0.139,0.382-0.476,0.544-0.792,0.725
			c-0.094,0.054-0.187,0.093-0.255,0.185c-0.194,0.258-0.511,0.311-0.779,0.442c-0.044,0.021-0.097,0.03-0.146,0.037
			c-0.342,0.044-0.625,0.153-0.763,0.517c-0.061,0.159-0.223,0.24-0.413,0.214c-0.16-0.022-0.294,0.029-0.421,0.129
			c-0.273,0.213-0.553,0.376-0.933,0.27c-0.17-0.047-0.351-0.008-0.46,0.21c-0.111,0.223-0.737,0.253-0.908,0.052
			c-0.099-0.116-0.202-0.147-0.338-0.142c-0.079,0.004-0.163,0.014-0.238-0.006c-0.181-0.047-0.297-0.035-0.341,0.19
			c-0.029,0.147-0.457,0.315-0.629,0.271c-0.095-0.023-0.193-0.058-0.258,0.036c-0.058,0.083,0.042,0.141,0.071,0.208
			c0.041,0.094,0.081,0.188,0.078,0.29c-0.009,0.246,0.085,0.404,0.342,0.454c0.101,0.02,0.149,0.118,0.166,0.211
			c0.016,0.091-0.059,0.137-0.134,0.174c-0.199,0.099-0.353,0.047-0.486-0.13c-0.162-0.215-0.326-0.417-0.292-0.715
			c0.008-0.073-0.066-0.156-0.105-0.233c-0.079-0.158-0.115-0.313,0.019-0.463c0.143-0.161,0.303-0.3,0.536-0.268
			c0.266,0.036,0.34-0.002,0.4-0.249c0.067-0.277,0.25-0.366,0.502-0.226c0.138,0.077,0.28,0.056,0.422,0.064
			c0.205,0.012,0.395,0.03,0.545,0.207c0.083,0.097,0.263,0.104,0.326,0.008c0.234-0.358,0.586-0.374,0.938-0.331
			c0.173,0.021,0.293-0.02,0.415-0.111c0.228-0.171,0.456-0.337,0.766-0.293c0.089,0.013,0.125-0.051,0.162-0.116
			c0.068-0.119,0.138-0.237,0.213-0.352c0.082-0.127,0.211-0.159,0.353-0.18c0.455-0.065,0.879-0.188,1.204-0.557
			c0.155-0.176,0.428-0.197,0.602-0.367c0.036-0.034,0.1-0.046,0.124-0.085C-18.991,36.695-18.793,36.348-18.594,36.002z"/>
		<path fill-rule="evenodd" clip-rule="evenodd" fill="#FDFEFD" d="M-19.264,32.24c0,0.185,0.001,0.368,0.001,0.553
			c-0.107-0.075-0.192-0.167-0.334-0.209c-0.155-0.046-0.276-0.203-0.3-0.368c-0.032-0.222-0.139-0.359-0.333-0.45
			c-0.043-0.02-0.075-0.065-0.111-0.099c-0.087-0.167,0.007-0.347-0.036-0.518c-0.021-0.082,0.048-0.088,0.107-0.089
			c0.113-0.003,0.227-0.004,0.34-0.006c0.004,0.064,0.034,0.142,0.009,0.19c-0.098,0.187-0.008,0.268,0.149,0.344
			c0.136,0.065,0.218,0.178,0.217,0.343C-19.556,32.123-19.479,32.249-19.264,32.24z"/>
		<path fill-rule="evenodd" clip-rule="evenodd" fill="#FDFEFD" d="M-26.595,27.146c-0.253,0.101-0.506-0.045-0.759-0.003
			c-0.24-0.162-0.5-0.272-0.777-0.361c-0.321-0.103-0.365-0.282-0.161-0.549c0.038-0.049,0.051-0.102,0.065-0.157
			c0.012-0.049,0.005-0.118,0.036-0.145c0.302-0.258,0.441-0.669,0.813-0.86c0.066-0.034,0.134-0.053,0.208-0.051
			c0.226,0.005,0.304-0.131,0.31-0.33c0.003-0.086,0.011-0.179-0.015-0.258c-0.066-0.198,0.009-0.352,0.125-0.499
			c0.031-0.039,0.094-0.08,0.091-0.115c-0.029-0.383,0.169-0.769-0.021-1.151c-0.101-0.202-0.093-0.426,0.052-0.594
			c0.188-0.218,0.227-0.457,0.201-0.722c-0.014-0.143,0.017-0.241,0.189-0.244c0.174-0.003,0.197,0.103,0.204,0.239
			c0.016,0.329,0.026,0.651-0.24,0.908c-0.086,0.083-0.088,0.195-0.028,0.301c0.145,0.255,0.127,0.523,0.073,0.798
			c-0.023,0.119-0.025,0.244-0.021,0.366c0.005,0.167-0.027,0.315-0.155,0.433c-0.07,0.064-0.084,0.138-0.071,0.235
			c0.017,0.128,0.014,0.26,0.006,0.39c-0.022,0.349-0.237,0.588-0.573,0.629c-0.238,0.029-0.381,0.186-0.497,0.365
			c-0.077,0.12-0.123,0.256-0.248,0.346c-0.113,0.082-0.054,0.249-0.195,0.368c0.283-0.006,0.491,0.072,0.671,0.224
			c0.059,0.049,0.131,0.052,0.206,0.041C-26.763,26.695-26.641,26.791-26.595,27.146z"/>
		<path fill-rule="evenodd" clip-rule="evenodd" fill="#FDFEFD" d="M-16.144,31.393c0.441-1.236,0.884-2.47,1.325-3.708
			c0.113-0.318,0.11-0.32,0.451-0.32c0.796,0,1.592,0.002,2.388-0.001c0.135,0,0.197,0.002,0.129,0.173
			c-0.528,1.343-1.044,2.69-1.57,4.035c-0.063,0.161-0.053,0.265,0.077,0.395c0.821,0.825,1.334,1.815,1.564,2.958
			c0.031,0.151-0.006,0.175-0.138,0.174c-0.912-0.003-1.824-0.008-2.735,0.003c-0.204,0.002-0.191-0.138-0.221-0.25
			c-0.211-0.799-0.593-1.5-1.18-2.084c-0.029-0.029-0.05-0.072-0.107-0.069c-0.042,0.064-0.018,0.137-0.018,0.205
			c-0.002,0.658-0.007,1.316,0.001,1.976c0.002,0.166-0.039,0.224-0.215,0.222c-0.817-0.01-1.635-0.009-2.453,0
			c-0.169,0.002-0.205-0.056-0.204-0.211c0.006-0.941,0.003-1.882,0.003-2.822c0-1.49,0.002-2.979-0.003-4.47
			c-0.001-0.172,0.032-0.238,0.223-0.236c0.81,0.011,1.621,0.009,2.431,0.001c0.17-0.002,0.22,0.043,0.219,0.216
			c-0.007,1.194-0.004,2.387-0.004,3.581c0,0.078,0,0.157,0,0.236C-16.168,31.394-16.156,31.393-16.144,31.393z"/>
		<path fill-rule="evenodd" clip-rule="evenodd" fill="#FDFEFD" d="M-39.621,31.215c0-1.208,0.003-2.414-0.003-3.622
			c-0.001-0.177,0.045-0.233,0.229-0.232c1.048,0.009,2.098-0.022,3.146,0.013c0.866,0.029,1.73,0.132,2.464,0.672
			c0.558,0.41,0.858,0.968,0.888,1.656c0.021,0.491,0.014,0.982,0.009,1.474c-0.009,0.868-0.436,1.491-1.169,1.914
			c-0.69,0.398-1.453,0.49-2.235,0.483c-0.468-0.004-0.468,0-0.468,0.46c0,0.289-0.004,0.579,0.001,0.868
			c0.003,0.137-0.044,0.193-0.188,0.192c-0.832-0.004-1.664-0.006-2.495,0.002c-0.172,0.002-0.18-0.081-0.18-0.213
			C-39.62,33.659-39.621,32.438-39.621,31.215z M-35.888,31.683c0.289-0.059,0.56-0.157,0.6-0.497
			c0.024-0.212,0.033-0.432-0.003-0.647c0.036-0.135,0.011-0.273,0.009-0.41c-0.005-0.324-0.166-0.515-0.485-0.598
			c-0.292-0.075-0.589-0.023-0.884-0.037c-0.106-0.005-0.108,0.069-0.108,0.146c0,0.65,0.002,1.3-0.002,1.951
			c0,0.126,0.051,0.159,0.168,0.159C-36.356,31.751-36.12,31.748-35.888,31.683z"/>
		<path fill-rule="evenodd" clip-rule="evenodd" fill="#FDFEFD" d="M-22.814,27.365c0.94,0,1.881,0.003,2.821-0.003
			c0.157-0.001,0.214,0.034,0.211,0.203c-0.009,0.752-0.008,1.505,0,2.256c0.001,0.154-0.048,0.198-0.198,0.194
			c-0.369-0.009-0.738,0.006-1.107-0.007c-0.17-0.005-0.22,0.045-0.219,0.218c0.006,1.533-0.001,3.067,0.009,4.6
			c0.002,0.223-0.057,0.278-0.275,0.274c-0.847-0.013-1.693-0.011-2.54,0c-0.186,0.002-0.228-0.059-0.227-0.234
			c0.006-1.49,0.003-2.98,0.004-4.47c0-0.384,0.002-0.384-0.383-0.384c-0.326,0-0.651-0.005-0.977,0.003
			c-0.131,0.003-0.177-0.04-0.176-0.173c0.005-0.766,0.007-1.533-0.001-2.299c-0.002-0.173,0.083-0.18,0.214-0.179
			C-24.71,27.367-23.762,27.365-22.814,27.365z"/>
		<path fill-rule="evenodd" clip-rule="evenodd" fill="#FDFEFD" d="M-29.597,27.365c0.94,0,1.88,0.003,2.821-0.003
			c0.16-0.001,0.228,0.027,0.225,0.21c-0.011,0.745-0.009,1.49-0.001,2.234c0.001,0.159-0.037,0.215-0.204,0.209
			c-0.383-0.012-0.767,0.005-1.15-0.008c-0.175-0.006-0.217,0.053-0.216,0.222c0.006,1.533-0.002,3.066,0.009,4.599
			c0.001,0.225-0.061,0.275-0.277,0.271c-0.824-0.013-1.649-0.011-2.473-0.001c-0.193,0.002-0.258-0.042-0.256-0.248
			c0.009-1.533,0.002-3.066,0.009-4.6c0.001-0.185-0.038-0.253-0.237-0.244c-0.368,0.018-0.738,0-1.106,0.008
			c-0.141,0.003-0.188-0.041-0.186-0.184c0.006-0.759,0.007-1.519-0.001-2.278c-0.002-0.159,0.056-0.191,0.201-0.19
			C-31.492,27.368-30.544,27.365-29.597,27.365z"/>
		<path fill-rule="evenodd" clip-rule="evenodd" fill="#FDFEFD" d="M-33.099,42.878c0.785-1.166,1.569-2.333,2.354-3.499
			c0.756-1.125,1.513-2.25,2.27-3.375c0.351-0.071,0.705-0.031,1.058-0.03c0.176,0.001,0.22-0.057,0.217-0.224
			c-0.01-0.556-0.004-1.111-0.005-1.667c0.073-0.029,0.099-0.101,0.139-0.158c0.459-0.68,0.922-1.356,1.375-2.04
			c0.081-0.122,0.129-0.15,0.26-0.057c0.297,0.214,0.609,0.405,0.916,0.605c0,0.439,0,0.878,0.001,1.316
			c-0.163,0.101-0.271,0.257-0.397,0.393c-2.35,2.534-4.698,5.07-7.046,7.605c-0.363,0.392-0.731,0.779-1.097,1.169
			C-33.071,42.904-33.085,42.892-33.099,42.878z"/>
		<path fill-rule="evenodd" clip-rule="evenodd" fill="#FDFEFD" d="M-24.446,27.146c0.759-0.824,1.516-1.649,2.276-2.472
			c1.345-1.455,2.691-2.908,4.038-4.362c0.038-0.041,0.084-0.074,0.127-0.111c0.006,0.006,0.012,0.013,0.017,0.02
			c-0.655,0.975-1.309,1.951-1.965,2.925c-0.897,1.334-1.795,2.667-2.693,4.001C-23.245,27.209-23.846,27.194-24.446,27.146z"/>
		<path fill-rule="evenodd" clip-rule="evenodd" fill="#1D4B07" d="M-24.517,32.434c-0.306-0.2-0.619-0.392-0.916-0.605
			c-0.131-0.094-0.179-0.065-0.26,0.057c-0.453,0.684-0.915,1.36-1.375,2.04c-0.04,0.058-0.066,0.129-0.139,0.158
			c0.004-0.921,0.014-1.842,0.006-2.764c-0.001-0.203,0.041-0.281,0.258-0.264c0.234,0.02,0.471,0.001,0.707-0.001
			c0.057,0.099,0.164,0.135,0.251,0.194c0.397,0.269,0.399,0.267,0.651-0.144c0.239-0.075,0.484-0.025,0.726-0.026
			c0.106,0,0.081,0.102,0.082,0.168C-24.52,31.643-24.519,32.038-24.517,32.434z"/>
		<path fill-rule="evenodd" clip-rule="evenodd" fill="#869E7A" d="M-19.264,32.24c-0.215,0.009-0.292-0.117-0.291-0.309
			c0.001-0.165-0.081-0.277-0.217-0.343c-0.157-0.076-0.247-0.157-0.149-0.344c0.025-0.049-0.004-0.126-0.009-0.19
			c0.179,0.014,0.358,0.034,0.537,0.038c0.13,0.003,0.131,0.08,0.13,0.173C-19.263,31.591-19.263,31.915-19.264,32.24z"/>
		<path fill-rule="evenodd" clip-rule="evenodd" fill="#FDFEFD" d="M-25.332,31.105c-0.252,0.41-0.254,0.412-0.651,0.144
			c-0.087-0.06-0.194-0.096-0.251-0.194c0.235,0.001,0.471-0.001,0.706,0.003C-25.461,31.059-25.383,31.031-25.332,31.105z"/>
		<path fill-rule="evenodd" clip-rule="evenodd" fill="#FDFEFD" d="M-38.043,18.867c0.869-0.845,1.815-1.61,2.847-2.269
			c0.768-0.491,1.562-0.933,2.396-1.3c0.15-0.066,0.197-0.025,0.25,0.107c0.236,0.59,0.475,1.178,0.726,1.762
			c0.069,0.161,0.046,0.232-0.119,0.304c-1.055,0.465-2.041,1.051-2.956,1.75c-0.481,0.367-0.964,0.736-1.38,1.181
			c-0.066,0.07-0.12,0.138-0.225,0.03C-37.012,19.908-37.527,19.39-38.043,18.867z"/>
		<path fill-rule="evenodd" clip-rule="evenodd" fill="#FDFEFD" d="M-39.867,25.45c-0.062-0.024-0.123-0.047-0.183-0.072
			c-0.547-0.225-1.094-0.451-1.642-0.674c-0.272-0.111-0.271-0.109-0.152-0.377c0.469-1.049,1.03-2.046,1.691-2.988
			c0.515-0.733,1.09-1.415,1.698-2.072c0.093-0.101,0.142-0.089,0.232,0c0.47,0.47,0.943,0.936,1.421,1.397
			c0.104,0.099,0.097,0.16,0,0.26c-0.977,1.004-1.782,2.136-2.445,3.368c-0.181,0.336-0.333,0.688-0.501,1.031
			C-39.772,25.376-39.777,25.457-39.867,25.45z"/>
		<path fill-rule="evenodd" clip-rule="evenodd" fill="#FDFEFD" d="M-36.695,42.453c-0.039,0.045-0.068,0.085-0.104,0.12
			c-0.465,0.466-0.935,0.927-1.395,1.398c-0.11,0.113-0.169,0.1-0.271-0.006c-0.995-1.027-1.836-2.17-2.552-3.406
			c-0.326-0.563-0.613-1.146-0.877-1.74c-0.049-0.109-0.069-0.161,0.071-0.217c0.618-0.245,1.23-0.502,1.842-0.761
			c0.121-0.051,0.178-0.045,0.237,0.09c0.534,1.225,1.224,2.356,2.061,3.396c0.28,0.349,0.59,0.674,0.886,1.009
			C-36.763,42.374-36.731,42.411-36.695,42.453z"/>
		<path fill-rule="evenodd" clip-rule="evenodd" fill="#FDFEFD" d="M-31.766,45.929c-0.033,0.084-0.062,0.166-0.095,0.246
			c-0.234,0.566-0.477,1.13-0.7,1.701c-0.059,0.149-0.116,0.137-0.234,0.084c-1.152-0.515-2.233-1.149-3.253-1.892
			c-0.649-0.473-1.261-0.989-1.847-1.537c-0.116-0.108-0.148-0.177-0.014-0.306c0.465-0.444,0.92-0.899,1.373-1.357
			c0.098-0.1,0.154-0.101,0.26-0.002c0.631,0.594,1.301,1.141,2.019,1.627c0.737,0.499,1.514,0.926,2.322,1.298
			C-31.871,45.821-31.772,45.824-31.766,45.929z"/>
		<path fill-rule="evenodd" clip-rule="evenodd" fill="#FDFEFD" d="M-14.749,20.511c-0.042-0.037-0.081-0.068-0.116-0.102
			c-1.273-1.233-2.721-2.208-4.338-2.931c-0.169-0.075-0.206-0.141-0.128-0.319c0.254-0.582,0.49-1.172,0.724-1.762
			c0.057-0.145,0.119-0.161,0.255-0.099c1.483,0.668,2.861,1.504,4.104,2.555c0.358,0.303,0.701,0.624,1.055,0.931
			c0.076,0.066,0.089,0.104,0.01,0.183c-0.49,0.481-0.975,0.968-1.462,1.452C-14.674,20.449-14.708,20.475-14.749,20.511z"/>
		<path fill-rule="evenodd" clip-rule="evenodd" fill="#FDFEFD" d="M-12.835,19.188c0.075,0.007,0.107,0.061,0.146,0.1
			c1.314,1.38,2.391,2.924,3.205,4.649c0.083,0.176,0.163,0.354,0.248,0.529c0.042,0.087,0.034,0.135-0.069,0.177
			c-0.636,0.256-1.27,0.517-1.9,0.785c-0.138,0.059-0.161-0.023-0.2-0.111c-0.342-0.766-0.74-1.502-1.203-2.203
			c-0.514-0.778-1.078-1.517-1.731-2.185c-0.079-0.081-0.13-0.132-0.019-0.241c0.477-0.463,0.943-0.938,1.414-1.408
			C-12.91,19.246-12.869,19.216-12.835,19.188z"/>
		<path fill-rule="evenodd" clip-rule="evenodd" fill="#FDFEFD" d="M-31.382,38.354c-0.079,0.16-0.1,0.351-0.252,0.471
			c0.049-0.104,0.015-0.193-0.051-0.276c-0.053-0.067-0.108-0.133-0.155-0.205c-0.024-0.038-0.07-0.087-0.024-0.135
			c0.046-0.048,0.093-0.002,0.134,0.021C-31.621,38.29-31.528,38.394-31.382,38.354z"/>
		<path fill-rule="evenodd" clip-rule="evenodd" fill="#FDFEFD" d="M-33.057,42.917c-0.021,0.035-0.051,0.038-0.085,0.02
			c0.014-0.02,0.029-0.039,0.043-0.059C-33.085,42.892-33.071,42.904-33.057,42.917z"/>
		<path fill-rule="evenodd" clip-rule="evenodd" fill="#FDFEFD" d="M-18.004,20.201c0.011-0.012,0.03-0.035,0.03-0.034
			c0.034,0.026,0.002,0.038-0.013,0.054C-17.993,20.214-17.999,20.208-18.004,20.201z"/>
		<polygon fill-rule="evenodd" clip-rule="evenodd" fill="#FDFEFD" points="-25.105,15.196 -25.108,15.18 -25.097,15.182 		"/>
		<path fill-rule="evenodd" clip-rule="evenodd" fill="#B4C3AD" d="M-35.888,31.683c-0.231,0.065-0.468,0.068-0.707,0.067
			c-0.117,0-0.169-0.033-0.168-0.159c0.004-0.651,0.002-1.301,0.002-1.951c0-0.077,0.002-0.151,0.108-0.146
			c0.295,0.014,0.592-0.038,0.884,0.037c0.319,0.083,0.48,0.274,0.485,0.598c0.002,0.137,0.027,0.274-0.009,0.41
			c-0.135-0.016-0.271-0.029-0.406-0.047c-0.135-0.018-0.196,0.024-0.192,0.174C-35.881,31.004-35.888,31.344-35.888,31.683z"/>
		<path fill-rule="evenodd" clip-rule="evenodd" fill="#869E7A" d="M-35.888,31.683c0-0.339,0.007-0.679-0.002-1.018
			c-0.004-0.15,0.057-0.192,0.192-0.174c0.135,0.018,0.271,0.032,0.406,0.047c0.037,0.216,0.028,0.436,0.003,0.647
			C-35.328,31.525-35.599,31.624-35.888,31.683z"/>
	</g>
</g>
<line fill="none" stroke="#D3D3D3" stroke-width="0.5" stroke-miterlimit="10" x1="6.091" y1="11.166" x2="6.091" y2="51.501"/>
</svg>
