<?xml version="1.0" encoding="utf-8"?>
<!-- Generator: Adobe Illustrator 16.0.3, SVG Export Plug-In . SVG Version: 6.00 Build 0)  -->
<!DOCTYPE svg PUBLIC "-//W3C//DTD SVG 1.1//EN" "http://www.w3.org/Graphics/SVG/1.1/DTD/svg11.dtd">
<svg version="1.1" id="Warstwa_1" xmlns="http://www.w3.org/2000/svg" xmlns:xlink="http://www.w3.org/1999/xlink" x="0px" y="0px"
	 width="166.667px" height="60px" viewBox="0 0 166.667 60" enable-background="new 0 0 166.667 60" xml:space="preserve">
<path fill="#ACCD6C" d="M35.565,14.938c1.257-1.257,2.514-2.347,2.095-3.772c2.516,2.431,3.563,5.155,0.503,8.214L25.421,32.122
	c-1.256,1.256-2.431,2.85-2.012,4.275c-2.892-2.809-3.855-5.533-0.586-8.72L35.565,14.938z"/>
<path fill="#51AD32" d="M48.446,30.208c1.259-1.259,2.516-2.349,2.097-3.774c2.516,2.433,3.604,5.198,0.502,8.217L38.304,47.395
	c-1.258,1.257-2.431,2.683-2.013,4.106c-2.892-2.807-3.856-5.363-0.586-8.55L48.446,30.208z"/>
<path fill="#ACCD6C" d="M32.046,26.783c1.862-0.35,3.442,0,4.741,1.301c1.258,1.258,2.431,4.024-0.67,7.042l-4.359,4.36
	c-1.259,1.258-2.432,2.852-2.012,4.275c-2.892-2.808-3.856-5.532-0.586-8.719l4.359-4.359
	C34.885,29.237,34.408,27.125,32.046,26.783"/>
<path fill="#1D1D1B" d="M137.14,25.615c0.465,0,0.766,0.046,1.032,0.092v1.1c-0.325,0.338-0.754,0.651-1.333,0.651
	c-0.626,0-1.065-0.313-1.065-0.917C135.773,25.869,136.317,25.615,137.14,25.615 M137.083,22.173c-0.975,0-1.611,0.37-2.132,1.019
	l0.625,0.58c0.347-0.464,0.753-0.754,1.414-0.754c0.717,0,1.182,0.486,1.182,1.274v0.672c-0.325-0.058-0.638-0.115-1.194-0.115
	c-1.333,0-2.212,0.626-2.212,1.773c0,1.02,0.741,1.681,1.784,1.681c0.81,0,1.31-0.348,1.668-0.706v0.592h0.95v-3.954
	C139.168,22.925,138.3,22.173,137.083,22.173 M129.945,25.15v-5.965h-1.009v9.004h1.009v-1.752l0.822-0.845l2.027,2.597h1.228
	l-2.548-3.339l2.352-2.56h-1.228L129.945,25.15z M125.401,22.173c-1.146,0-1.922,0.729-1.922,1.736c0,0.928,0.729,1.345,1.771,1.705
	c0.754,0.254,1.137,0.428,1.137,0.984c0,0.569-0.371,0.847-1.008,0.847c-0.603,0-1.044-0.324-1.275-0.857l-0.811,0.451
	c0.395,0.835,1.101,1.264,2.097,1.264c1.089,0,1.994-0.638,1.994-1.772c0-0.998-0.661-1.345-1.683-1.705
	c-0.81-0.29-1.227-0.44-1.227-0.974c0-0.521,0.371-0.834,0.961-0.834c0.509,0,0.858,0.221,1.043,0.695l0.8-0.383
	C127.003,22.555,126.295,22.173,125.401,22.173 M120.663,28.188l2.051-5.899h-1.077l-1.471,4.368l-1.6-4.368h-0.753l-1.601,4.368
	l-1.483-4.368h-1.064l2.039,5.899h0.962l1.518-4.197l1.542,4.197H120.663z M109.923,23.018c1.101,0,1.98,0.869,1.98,2.213
	c0,1.333-0.88,2.214-1.98,2.214c-1.113,0-1.994-0.882-1.994-2.214C107.929,23.887,108.81,23.018,109.923,23.018 M109.923,22.173
	c-1.646,0-3.013,1.216-3.013,3.058c0,1.843,1.366,3.072,3.013,3.072c1.633,0,3.001-1.229,3.001-3.072
	C112.924,23.389,111.556,22.173,109.923,22.173 M102.772,23.018c0.975,0,1.936,0.73,1.936,2.213c0,1.495-0.961,2.214-1.936,2.214
	c-0.834,0-1.297-0.324-1.656-0.788v-2.851C101.476,23.342,101.938,23.018,102.772,23.018 M102.971,22.173
	c-0.998,0-1.507,0.347-1.901,0.786v-0.67h-0.949v8.854h1.006v-3.558c0.372,0.417,0.917,0.718,1.798,0.718
	c1.413,0,2.793-0.973,2.793-3.072C105.717,23.168,104.349,22.173,102.971,22.173 M98.103,22.289h-1.006v5.899h1.006V22.289z
	 M97.594,19.543c-0.36,0-0.66,0.302-0.66,0.661c0,0.371,0.289,0.661,0.66,0.661c0.359,0,0.673-0.29,0.673-0.661
	C98.267,19.845,97.953,19.543,97.594,19.543 M92.286,27.248V19.52h-1.055v8.668h4.461v-0.94H92.286z M84.477,25.615
	c0.465,0,0.765,0.046,1.032,0.092v1.1c-0.324,0.338-0.754,0.651-1.333,0.651c-0.626,0-1.066-0.313-1.066-0.917
	C83.109,25.869,83.654,25.615,84.477,25.615 M84.418,22.173c-0.973,0-1.609,0.37-2.131,1.019l0.625,0.58
	c0.348-0.464,0.754-0.754,1.415-0.754c0.719,0,1.182,0.486,1.182,1.274v0.672c-0.324-0.058-0.638-0.115-1.193-0.115
	c-1.333,0-2.214,0.626-2.214,1.773c0,1.02,0.741,1.681,1.784,1.681c0.812,0,1.31-0.348,1.67-0.706v0.592h0.948v-3.954
	C86.504,22.925,85.636,22.173,84.418,22.173 M80.445,19.185h-1.009v9.004h1.009V19.185z M75.439,25.615
	c0.464,0,0.765,0.046,1.031,0.092v1.1c-0.324,0.338-0.754,0.651-1.332,0.651c-0.627,0-1.065-0.313-1.065-0.917
	C74.073,25.869,74.616,25.615,75.439,25.615 M75.382,22.173c-0.974,0-1.612,0.37-2.133,1.019l0.626,0.58
	c0.347-0.464,0.754-0.754,1.414-0.754c0.72,0,1.182,0.486,1.182,1.274v0.672c-0.324-0.058-0.639-0.115-1.193-0.115
	c-1.333,0-2.214,0.626-2.214,1.773c0,1.02,0.742,1.681,1.785,1.681c0.812,0,1.31-0.348,1.669-0.706v0.592h0.949v-3.954
	C77.467,22.925,76.598,22.173,75.382,22.173 M71.372,28.188V19.52H70.33v3.695h-4.832V19.52h-1.055v8.668h1.055v-4.023h4.832v4.023
	H71.372z"/>
<path fill="#39A935" d="M142.616,39.502l2.67-3.05h-1.058l-3.217,3.578v-3.578h-0.843v6.935h0.843v-2.169l1.02-1.085l2.531,3.254
	h1.011L142.616,39.502z M139.176,37.204v-0.752h-5.812v0.752h2.485v6.183h0.843v-6.183H139.176z M132.389,37.204v-0.752h-5.813
	v0.752h2.483v6.183h0.844v-6.183H132.389z M122.71,37.204h1.01c0.826,0,1.429,0.426,1.429,1.308c0,0.87-0.603,1.296-1.429,1.296
	h-1.01V37.204z M121.866,36.452v6.935h0.844v-2.818h1.057c1.316,0,2.235-0.686,2.235-2.057c0-1.373-0.919-2.06-2.235-2.06H121.866z
	 M115.03,38.219c1.101,0,1.98,0.868,1.98,2.213c0,1.332-0.88,2.214-1.98,2.214c-1.112,0-1.993-0.882-1.993-2.214
	C113.037,39.087,113.918,38.219,115.03,38.219 M115.03,37.372c-1.646,0-3.013,1.218-3.013,3.06c0,1.843,1.366,3.069,3.013,3.069
	c1.634,0,3.001-1.227,3.001-3.069C118.031,38.59,116.664,37.372,115.03,37.372 M107.512,40.35v-5.968h-1.01v9.005h1.01v-1.75
	l0.821-0.846l2.028,2.596h1.228l-2.55-3.338l2.353-2.561h-1.229L107.512,40.35z M103.258,37.372c-1.147,0-1.925,0.73-1.925,1.736
	c0,0.93,0.731,1.346,1.773,1.706c0.753,0.255,1.135,0.429,1.135,0.986c0,0.567-0.369,0.845-1.008,0.845
	c-0.601,0-1.042-0.326-1.273-0.858l-0.812,0.451c0.395,0.835,1.1,1.263,2.098,1.263c1.089,0,1.991-0.636,1.991-1.771
	c0-0.996-0.659-1.344-1.678-1.704c-0.812-0.29-1.229-0.439-1.229-0.972c0-0.522,0.37-0.835,0.962-0.835
	c0.51,0,0.856,0.22,1.042,0.695l0.801-0.383C104.856,37.755,104.149,37.372,103.258,37.372 M100.048,37.488H99.04v5.898h1.008
	V37.488z M99.539,34.743c-0.359,0-0.66,0.3-0.66,0.658c0,0.373,0.288,0.662,0.66,0.662c0.357,0,0.672-0.289,0.672-0.662
	C100.211,35.043,99.896,34.743,99.539,34.743 M95.263,37.372c-0.962,0-1.554,0.452-1.854,0.858v-0.742h-0.973v5.898h1.008v-4.278
	c0.324-0.381,0.8-0.81,1.564-0.81c0.845,0,1.356,0.627,1.356,1.508v3.58h0.995v-3.731C97.359,38.276,96.525,37.372,95.263,37.372
	 M88.147,38.219c1.101,0,1.982,0.868,1.982,2.213c0,1.332-0.882,2.214-1.982,2.214c-1.111,0-1.992-0.882-1.992-2.214
	C86.155,39.087,87.036,38.219,88.147,38.219 M88.147,37.372c-1.645,0-3.012,1.218-3.012,3.06c0,1.843,1.367,3.069,3.012,3.069
	c1.635,0,3.002-1.227,3.002-3.069C91.149,38.59,89.782,37.372,88.147,37.372 M84.66,37.453c-0.892,0-1.459,0.452-1.796,0.858v-0.823
	h-1.008v5.898h1.008v-4.103c0.429-0.451,0.916-0.821,1.727-0.821L84.66,37.453z M76.259,34.382h-1.008v9.005h1.008v-4.278
	c0.325-0.381,0.801-0.81,1.566-0.81c0.845,0,1.355,0.627,1.355,1.508v3.58h0.996v-3.731c0-1.379-0.835-2.283-2.097-2.283
	c-0.939,0-1.496,0.428-1.821,0.824V34.382z M71.927,37.372c-1.623,0-2.956,1.147-2.956,3.06s1.333,3.069,2.956,3.069
	c0.949,0,1.703-0.369,2.248-1.133l-0.719-0.523c-0.324,0.465-0.835,0.801-1.529,0.801c-1.102,0-1.936-0.835-1.936-2.214
	c0-1.392,0.834-2.213,1.936-2.213c0.694,0,1.205,0.347,1.529,0.812l0.719-0.522C73.63,37.731,72.876,37.372,71.927,37.372
	 M66.167,37.372c-1.147,0-1.924,0.73-1.924,1.736c0,0.93,0.731,1.346,1.774,1.706c0.751,0.255,1.135,0.429,1.135,0.986
	c0,0.567-0.371,0.845-1.008,0.845c-0.603,0-1.043-0.326-1.275-0.858l-0.812,0.451c0.395,0.835,1.102,1.263,2.099,1.263
	c1.09,0,1.992-0.636,1.992-1.771c0-0.996-0.66-1.344-1.68-1.704c-0.811-0.29-1.229-0.439-1.229-0.972
	c0-0.522,0.37-0.835,0.963-0.835c0.51,0,0.856,0.22,1.043,0.695l0.8-0.383C67.767,37.755,67.06,37.372,66.167,37.372"/>
</svg>
